<?xml version="1.0" encoding="utf-8" standalone="no"?>
<!DOCTYPE svg PUBLIC "-//W3C//DTD SVG 1.1//EN"
  "http://www.w3.org/Graphics/SVG/1.1/DTD/svg11.dtd">
<!-- Created with matplotlib (https://matplotlib.org/) -->
<svg height="345.6pt" version="1.1" viewBox="0 0 460.8 345.6" width="460.8pt" xmlns="http://www.w3.org/2000/svg" xmlns:xlink="http://www.w3.org/1999/xlink">
 <metadata>
  <rdf:RDF xmlns:cc="http://creativecommons.org/ns#" xmlns:dc="http://purl.org/dc/elements/1.1/" xmlns:rdf="http://www.w3.org/1999/02/22-rdf-syntax-ns#">
   <cc:Work>
    <dc:type rdf:resource="http://purl.org/dc/dcmitype/StillImage"/>
    <dc:date>2021-04-18T21:54:26.668141</dc:date>
    <dc:format>image/svg+xml</dc:format>
    <dc:creator>
     <cc:Agent>
      <dc:title>Matplotlib v3.3.1, https://matplotlib.org/</dc:title>
     </cc:Agent>
    </dc:creator>
   </cc:Work>
  </rdf:RDF>
 </metadata>
 <defs>
  <style type="text/css">*{stroke-linecap:butt;stroke-linejoin:round;}</style>
 </defs>
 <g id="figure_1">
  <g id="patch_1">
   <path d="M 0 345.6 
L 460.8 345.6 
L 460.8 0 
L 0 0 
z
" style="fill:#ffffff;"/>
  </g>
  <g id="axes_1">
   <g id="patch_2">
    <path d="M 57.6 307.584 
L 414.72 307.584 
L 414.72 41.472 
L 57.6 41.472 
z
" style="fill:#ffffff;"/>
   </g>
   <g id="matplotlib.axis_1">
    <g id="xtick_1">
     <g id="line2d_1">
      <defs>
       <path d="M 0 0 
L 0 3.5 
" id="m428bf00085" style="stroke:#000000;stroke-width:0.8;"/>
      </defs>
      <g>
       <use style="stroke:#000000;stroke-width:0.8;" x="72.199573" xlink:href="#m428bf00085" y="307.584"/>
      </g>
     </g>
     <g id="text_1">
      <!-- 0 -->
      <g transform="translate(69.018323 322.182437)scale(0.1 -0.1)">
       <defs>
        <path d="M 31.78125 66.40625 
Q 24.171875 66.40625 20.328125 58.90625 
Q 16.5 51.421875 16.5 36.375 
Q 16.5 21.390625 20.328125 13.890625 
Q 24.171875 6.390625 31.78125 6.390625 
Q 39.453125 6.390625 43.28125 13.890625 
Q 47.125 21.390625 47.125 36.375 
Q 47.125 51.421875 43.28125 58.90625 
Q 39.453125 66.40625 31.78125 66.40625 
z
M 31.78125 74.21875 
Q 44.046875 74.21875 50.515625 64.515625 
Q 56.984375 54.828125 56.984375 36.375 
Q 56.984375 17.96875 50.515625 8.265625 
Q 44.046875 -1.421875 31.78125 -1.421875 
Q 19.53125 -1.421875 13.0625 8.265625 
Q 6.59375 17.96875 6.59375 36.375 
Q 6.59375 54.828125 13.0625 64.515625 
Q 19.53125 74.21875 31.78125 74.21875 
z
" id="DejaVuSans-48"/>
       </defs>
       <use xlink:href="#DejaVuSans-48"/>
      </g>
     </g>
    </g>
    <g id="xtick_2">
     <g id="line2d_2">
      <g>
       <use style="stroke:#000000;stroke-width:0.8;" x="113.025448" xlink:href="#m428bf00085" y="307.584"/>
      </g>
     </g>
     <g id="text_2">
      <!-- 500 -->
      <g transform="translate(103.481698 322.182437)scale(0.1 -0.1)">
       <defs>
        <path d="M 10.796875 72.90625 
L 49.515625 72.90625 
L 49.515625 64.59375 
L 19.828125 64.59375 
L 19.828125 46.734375 
Q 21.96875 47.46875 24.109375 47.828125 
Q 26.265625 48.1875 28.421875 48.1875 
Q 40.625 48.1875 47.75 41.5 
Q 54.890625 34.8125 54.890625 23.390625 
Q 54.890625 11.625 47.5625 5.09375 
Q 40.234375 -1.421875 26.90625 -1.421875 
Q 22.3125 -1.421875 17.546875 -0.640625 
Q 12.796875 0.140625 7.71875 1.703125 
L 7.71875 11.625 
Q 12.109375 9.234375 16.796875 8.0625 
Q 21.484375 6.890625 26.703125 6.890625 
Q 35.15625 6.890625 40.078125 11.328125 
Q 45.015625 15.765625 45.015625 23.390625 
Q 45.015625 31 40.078125 35.4375 
Q 35.15625 39.890625 26.703125 39.890625 
Q 22.75 39.890625 18.8125 39.015625 
Q 14.890625 38.140625 10.796875 36.28125 
z
" id="DejaVuSans-53"/>
       </defs>
       <use xlink:href="#DejaVuSans-53"/>
       <use x="63.623047" xlink:href="#DejaVuSans-48"/>
       <use x="127.246094" xlink:href="#DejaVuSans-48"/>
      </g>
     </g>
    </g>
    <g id="xtick_3">
     <g id="line2d_3">
      <g>
       <use style="stroke:#000000;stroke-width:0.8;" x="153.851323" xlink:href="#m428bf00085" y="307.584"/>
      </g>
     </g>
     <g id="text_3">
      <!-- 1000 -->
      <g transform="translate(141.126323 322.182437)scale(0.1 -0.1)">
       <defs>
        <path d="M 12.40625 8.296875 
L 28.515625 8.296875 
L 28.515625 63.921875 
L 10.984375 60.40625 
L 10.984375 69.390625 
L 28.421875 72.90625 
L 38.28125 72.90625 
L 38.28125 8.296875 
L 54.390625 8.296875 
L 54.390625 0 
L 12.40625 0 
z
" id="DejaVuSans-49"/>
       </defs>
       <use xlink:href="#DejaVuSans-49"/>
       <use x="63.623047" xlink:href="#DejaVuSans-48"/>
       <use x="127.246094" xlink:href="#DejaVuSans-48"/>
       <use x="190.869141" xlink:href="#DejaVuSans-48"/>
      </g>
     </g>
    </g>
    <g id="xtick_4">
     <g id="line2d_4">
      <g>
       <use style="stroke:#000000;stroke-width:0.8;" x="194.677198" xlink:href="#m428bf00085" y="307.584"/>
      </g>
     </g>
     <g id="text_4">
      <!-- 1500 -->
      <g transform="translate(181.952198 322.182437)scale(0.1 -0.1)">
       <use xlink:href="#DejaVuSans-49"/>
       <use x="63.623047" xlink:href="#DejaVuSans-53"/>
       <use x="127.246094" xlink:href="#DejaVuSans-48"/>
       <use x="190.869141" xlink:href="#DejaVuSans-48"/>
      </g>
     </g>
    </g>
    <g id="xtick_5">
     <g id="line2d_5">
      <g>
       <use style="stroke:#000000;stroke-width:0.8;" x="235.503073" xlink:href="#m428bf00085" y="307.584"/>
      </g>
     </g>
     <g id="text_5">
      <!-- 2000 -->
      <g transform="translate(222.778073 322.182437)scale(0.1 -0.1)">
       <defs>
        <path d="M 19.1875 8.296875 
L 53.609375 8.296875 
L 53.609375 0 
L 7.328125 0 
L 7.328125 8.296875 
Q 12.9375 14.109375 22.625 23.890625 
Q 32.328125 33.6875 34.8125 36.53125 
Q 39.546875 41.84375 41.421875 45.53125 
Q 43.3125 49.21875 43.3125 52.78125 
Q 43.3125 58.59375 39.234375 62.25 
Q 35.15625 65.921875 28.609375 65.921875 
Q 23.96875 65.921875 18.8125 64.3125 
Q 13.671875 62.703125 7.8125 59.421875 
L 7.8125 69.390625 
Q 13.765625 71.78125 18.9375 73 
Q 24.125 74.21875 28.421875 74.21875 
Q 39.75 74.21875 46.484375 68.546875 
Q 53.21875 62.890625 53.21875 53.421875 
Q 53.21875 48.921875 51.53125 44.890625 
Q 49.859375 40.875 45.40625 35.40625 
Q 44.1875 33.984375 37.640625 27.21875 
Q 31.109375 20.453125 19.1875 8.296875 
z
" id="DejaVuSans-50"/>
       </defs>
       <use xlink:href="#DejaVuSans-50"/>
       <use x="63.623047" xlink:href="#DejaVuSans-48"/>
       <use x="127.246094" xlink:href="#DejaVuSans-48"/>
       <use x="190.869141" xlink:href="#DejaVuSans-48"/>
      </g>
     </g>
    </g>
    <g id="xtick_6">
     <g id="line2d_6">
      <g>
       <use style="stroke:#000000;stroke-width:0.8;" x="276.328949" xlink:href="#m428bf00085" y="307.584"/>
      </g>
     </g>
     <g id="text_6">
      <!-- 2500 -->
      <g transform="translate(263.603949 322.182437)scale(0.1 -0.1)">
       <use xlink:href="#DejaVuSans-50"/>
       <use x="63.623047" xlink:href="#DejaVuSans-53"/>
       <use x="127.246094" xlink:href="#DejaVuSans-48"/>
       <use x="190.869141" xlink:href="#DejaVuSans-48"/>
      </g>
     </g>
    </g>
    <g id="xtick_7">
     <g id="line2d_7">
      <g>
       <use style="stroke:#000000;stroke-width:0.8;" x="317.154824" xlink:href="#m428bf00085" y="307.584"/>
      </g>
     </g>
     <g id="text_7">
      <!-- 3000 -->
      <g transform="translate(304.429824 322.182437)scale(0.1 -0.1)">
       <defs>
        <path d="M 40.578125 39.3125 
Q 47.65625 37.796875 51.625 33 
Q 55.609375 28.21875 55.609375 21.1875 
Q 55.609375 10.40625 48.1875 4.484375 
Q 40.765625 -1.421875 27.09375 -1.421875 
Q 22.515625 -1.421875 17.65625 -0.515625 
Q 12.796875 0.390625 7.625 2.203125 
L 7.625 11.71875 
Q 11.71875 9.328125 16.59375 8.109375 
Q 21.484375 6.890625 26.8125 6.890625 
Q 36.078125 6.890625 40.9375 10.546875 
Q 45.796875 14.203125 45.796875 21.1875 
Q 45.796875 27.640625 41.28125 31.265625 
Q 36.765625 34.90625 28.71875 34.90625 
L 20.21875 34.90625 
L 20.21875 43.015625 
L 29.109375 43.015625 
Q 36.375 43.015625 40.234375 45.921875 
Q 44.09375 48.828125 44.09375 54.296875 
Q 44.09375 59.90625 40.109375 62.90625 
Q 36.140625 65.921875 28.71875 65.921875 
Q 24.65625 65.921875 20.015625 65.03125 
Q 15.375 64.15625 9.8125 62.3125 
L 9.8125 71.09375 
Q 15.4375 72.65625 20.34375 73.4375 
Q 25.25 74.21875 29.59375 74.21875 
Q 40.828125 74.21875 47.359375 69.109375 
Q 53.90625 64.015625 53.90625 55.328125 
Q 53.90625 49.265625 50.4375 45.09375 
Q 46.96875 40.921875 40.578125 39.3125 
z
" id="DejaVuSans-51"/>
       </defs>
       <use xlink:href="#DejaVuSans-51"/>
       <use x="63.623047" xlink:href="#DejaVuSans-48"/>
       <use x="127.246094" xlink:href="#DejaVuSans-48"/>
       <use x="190.869141" xlink:href="#DejaVuSans-48"/>
      </g>
     </g>
    </g>
    <g id="xtick_8">
     <g id="line2d_8">
      <g>
       <use style="stroke:#000000;stroke-width:0.8;" x="357.980699" xlink:href="#m428bf00085" y="307.584"/>
      </g>
     </g>
     <g id="text_8">
      <!-- 3500 -->
      <g transform="translate(345.255699 322.182437)scale(0.1 -0.1)">
       <use xlink:href="#DejaVuSans-51"/>
       <use x="63.623047" xlink:href="#DejaVuSans-53"/>
       <use x="127.246094" xlink:href="#DejaVuSans-48"/>
       <use x="190.869141" xlink:href="#DejaVuSans-48"/>
      </g>
     </g>
    </g>
    <g id="xtick_9">
     <g id="line2d_9">
      <g>
       <use style="stroke:#000000;stroke-width:0.8;" x="398.806574" xlink:href="#m428bf00085" y="307.584"/>
      </g>
     </g>
     <g id="text_9">
      <!-- 4000 -->
      <g transform="translate(386.081574 322.182437)scale(0.1 -0.1)">
       <defs>
        <path d="M 37.796875 64.3125 
L 12.890625 25.390625 
L 37.796875 25.390625 
z
M 35.203125 72.90625 
L 47.609375 72.90625 
L 47.609375 25.390625 
L 58.015625 25.390625 
L 58.015625 17.1875 
L 47.609375 17.1875 
L 47.609375 0 
L 37.796875 0 
L 37.796875 17.1875 
L 4.890625 17.1875 
L 4.890625 26.703125 
z
" id="DejaVuSans-52"/>
       </defs>
       <use xlink:href="#DejaVuSans-52"/>
       <use x="63.623047" xlink:href="#DejaVuSans-48"/>
       <use x="127.246094" xlink:href="#DejaVuSans-48"/>
       <use x="190.869141" xlink:href="#DejaVuSans-48"/>
      </g>
     </g>
    </g>
   </g>
   <g id="matplotlib.axis_2">
    <g id="ytick_1">
     <g id="line2d_10">
      <defs>
       <path d="M 0 0 
L -3.5 0 
" id="m1aeda53112" style="stroke:#000000;stroke-width:0.8;"/>
      </defs>
      <g>
       <use style="stroke:#000000;stroke-width:0.8;" x="57.6" xlink:href="#m1aeda53112" y="295.488003"/>
      </g>
     </g>
     <g id="text_10">
      <!-- 0 -->
      <g transform="translate(44.2375 299.287222)scale(0.1 -0.1)">
       <use xlink:href="#DejaVuSans-48"/>
      </g>
     </g>
    </g>
    <g id="ytick_2">
     <g id="line2d_11">
      <g>
       <use style="stroke:#000000;stroke-width:0.8;" x="57.6" xlink:href="#m1aeda53112" y="263.887015"/>
      </g>
     </g>
     <g id="text_11">
      <!-- 1 -->
      <g transform="translate(44.2375 267.686233)scale(0.1 -0.1)">
       <use xlink:href="#DejaVuSans-49"/>
      </g>
     </g>
    </g>
    <g id="ytick_3">
     <g id="line2d_12">
      <g>
       <use style="stroke:#000000;stroke-width:0.8;" x="57.6" xlink:href="#m1aeda53112" y="232.286026"/>
      </g>
     </g>
     <g id="text_12">
      <!-- 2 -->
      <g transform="translate(44.2375 236.085245)scale(0.1 -0.1)">
       <use xlink:href="#DejaVuSans-50"/>
      </g>
     </g>
    </g>
    <g id="ytick_4">
     <g id="line2d_13">
      <g>
       <use style="stroke:#000000;stroke-width:0.8;" x="57.6" xlink:href="#m1aeda53112" y="200.685037"/>
      </g>
     </g>
     <g id="text_13">
      <!-- 3 -->
      <g transform="translate(44.2375 204.484256)scale(0.1 -0.1)">
       <use xlink:href="#DejaVuSans-51"/>
      </g>
     </g>
    </g>
    <g id="ytick_5">
     <g id="line2d_14">
      <g>
       <use style="stroke:#000000;stroke-width:0.8;" x="57.6" xlink:href="#m1aeda53112" y="169.084049"/>
      </g>
     </g>
     <g id="text_14">
      <!-- 4 -->
      <g transform="translate(44.2375 172.883267)scale(0.1 -0.1)">
       <use xlink:href="#DejaVuSans-52"/>
      </g>
     </g>
    </g>
    <g id="ytick_6">
     <g id="line2d_15">
      <g>
       <use style="stroke:#000000;stroke-width:0.8;" x="57.6" xlink:href="#m1aeda53112" y="137.48306"/>
      </g>
     </g>
     <g id="text_15">
      <!-- 5 -->
      <g transform="translate(44.2375 141.282279)scale(0.1 -0.1)">
       <use xlink:href="#DejaVuSans-53"/>
      </g>
     </g>
    </g>
    <g id="ytick_7">
     <g id="line2d_16">
      <g>
       <use style="stroke:#000000;stroke-width:0.8;" x="57.6" xlink:href="#m1aeda53112" y="105.882071"/>
      </g>
     </g>
     <g id="text_16">
      <!-- 6 -->
      <g transform="translate(44.2375 109.68129)scale(0.1 -0.1)">
       <defs>
        <path d="M 33.015625 40.375 
Q 26.375 40.375 22.484375 35.828125 
Q 18.609375 31.296875 18.609375 23.390625 
Q 18.609375 15.53125 22.484375 10.953125 
Q 26.375 6.390625 33.015625 6.390625 
Q 39.65625 6.390625 43.53125 10.953125 
Q 47.40625 15.53125 47.40625 23.390625 
Q 47.40625 31.296875 43.53125 35.828125 
Q 39.65625 40.375 33.015625 40.375 
z
M 52.59375 71.296875 
L 52.59375 62.3125 
Q 48.875 64.0625 45.09375 64.984375 
Q 41.3125 65.921875 37.59375 65.921875 
Q 27.828125 65.921875 22.671875 59.328125 
Q 17.53125 52.734375 16.796875 39.40625 
Q 19.671875 43.65625 24.015625 45.921875 
Q 28.375 48.1875 33.59375 48.1875 
Q 44.578125 48.1875 50.953125 41.515625 
Q 57.328125 34.859375 57.328125 23.390625 
Q 57.328125 12.15625 50.6875 5.359375 
Q 44.046875 -1.421875 33.015625 -1.421875 
Q 20.359375 -1.421875 13.671875 8.265625 
Q 6.984375 17.96875 6.984375 36.375 
Q 6.984375 53.65625 15.1875 63.9375 
Q 23.390625 74.21875 37.203125 74.21875 
Q 40.921875 74.21875 44.703125 73.484375 
Q 48.484375 72.75 52.59375 71.296875 
z
" id="DejaVuSans-54"/>
       </defs>
       <use xlink:href="#DejaVuSans-54"/>
      </g>
     </g>
    </g>
    <g id="ytick_8">
     <g id="line2d_17">
      <g>
       <use style="stroke:#000000;stroke-width:0.8;" x="57.6" xlink:href="#m1aeda53112" y="74.281082"/>
      </g>
     </g>
     <g id="text_17">
      <!-- 7 -->
      <g transform="translate(44.2375 78.080301)scale(0.1 -0.1)">
       <defs>
        <path d="M 8.203125 72.90625 
L 55.078125 72.90625 
L 55.078125 68.703125 
L 28.609375 0 
L 18.3125 0 
L 43.21875 64.59375 
L 8.203125 64.59375 
z
" id="DejaVuSans-55"/>
       </defs>
       <use xlink:href="#DejaVuSans-55"/>
      </g>
     </g>
    </g>
    <g id="ytick_9">
     <g id="line2d_18">
      <g>
       <use style="stroke:#000000;stroke-width:0.8;" x="57.6" xlink:href="#m1aeda53112" y="42.680094"/>
      </g>
     </g>
     <g id="text_18">
      <!-- 8 -->
      <g transform="translate(44.2375 46.479312)scale(0.1 -0.1)">
       <defs>
        <path d="M 31.78125 34.625 
Q 24.75 34.625 20.71875 30.859375 
Q 16.703125 27.09375 16.703125 20.515625 
Q 16.703125 13.921875 20.71875 10.15625 
Q 24.75 6.390625 31.78125 6.390625 
Q 38.8125 6.390625 42.859375 10.171875 
Q 46.921875 13.96875 46.921875 20.515625 
Q 46.921875 27.09375 42.890625 30.859375 
Q 38.875 34.625 31.78125 34.625 
z
M 21.921875 38.8125 
Q 15.578125 40.375 12.03125 44.71875 
Q 8.5 49.078125 8.5 55.328125 
Q 8.5 64.0625 14.71875 69.140625 
Q 20.953125 74.21875 31.78125 74.21875 
Q 42.671875 74.21875 48.875 69.140625 
Q 55.078125 64.0625 55.078125 55.328125 
Q 55.078125 49.078125 51.53125 44.71875 
Q 48 40.375 41.703125 38.8125 
Q 48.828125 37.15625 52.796875 32.3125 
Q 56.78125 27.484375 56.78125 20.515625 
Q 56.78125 9.90625 50.3125 4.234375 
Q 43.84375 -1.421875 31.78125 -1.421875 
Q 19.734375 -1.421875 13.25 4.234375 
Q 6.78125 9.90625 6.78125 20.515625 
Q 6.78125 27.484375 10.78125 32.3125 
Q 14.796875 37.15625 21.921875 38.8125 
z
M 18.3125 54.390625 
Q 18.3125 48.734375 21.84375 45.5625 
Q 25.390625 42.390625 31.78125 42.390625 
Q 38.140625 42.390625 41.71875 45.5625 
Q 45.3125 48.734375 45.3125 54.390625 
Q 45.3125 60.0625 41.71875 63.234375 
Q 38.140625 66.40625 31.78125 66.40625 
Q 25.390625 66.40625 21.84375 63.234375 
Q 18.3125 60.0625 18.3125 54.390625 
z
" id="DejaVuSans-56"/>
       </defs>
       <use xlink:href="#DejaVuSans-56"/>
      </g>
     </g>
    </g>
    <g id="text_19">
     <!-- 1e−7 -->
     <g transform="translate(57.6 38.472)scale(0.1 -0.1)">
      <defs>
       <path d="M 56.203125 29.59375 
L 56.203125 25.203125 
L 14.890625 25.203125 
Q 15.484375 15.921875 20.484375 11.0625 
Q 25.484375 6.203125 34.421875 6.203125 
Q 39.59375 6.203125 44.453125 7.46875 
Q 49.3125 8.734375 54.109375 11.28125 
L 54.109375 2.78125 
Q 49.265625 0.734375 44.1875 -0.34375 
Q 39.109375 -1.421875 33.890625 -1.421875 
Q 20.796875 -1.421875 13.15625 6.1875 
Q 5.515625 13.8125 5.515625 26.8125 
Q 5.515625 40.234375 12.765625 48.109375 
Q 20.015625 56 32.328125 56 
Q 43.359375 56 49.78125 48.890625 
Q 56.203125 41.796875 56.203125 29.59375 
z
M 47.21875 32.234375 
Q 47.125 39.59375 43.09375 43.984375 
Q 39.0625 48.390625 32.421875 48.390625 
Q 24.90625 48.390625 20.390625 44.140625 
Q 15.875 39.890625 15.1875 32.171875 
z
" id="DejaVuSans-101"/>
       <path d="M 10.59375 35.5 
L 73.1875 35.5 
L 73.1875 27.203125 
L 10.59375 27.203125 
z
" id="DejaVuSans-8722"/>
      </defs>
      <use xlink:href="#DejaVuSans-49"/>
      <use x="63.623047" xlink:href="#DejaVuSans-101"/>
      <use x="125.146484" xlink:href="#DejaVuSans-8722"/>
      <use x="208.935547" xlink:href="#DejaVuSans-55"/>
     </g>
    </g>
   </g>
   <g id="line2d_19">
    <path clip-path="url(#p5217ff6413)" d="M 73.832727 295.487998 
L 96.293879 295.384249 
L 104.052777 295.169975 
L 104.304237 295.451862 
L 104.318701 295.345064 
L 104.326838 290.921779 
L 104.327437 276.432224 
L 104.360192 295.456475 
L 104.414441 295.41633 
L 104.448281 295.378353 
L 104.461142 295.157543 
L 104.554143 295.420478 
L 104.59831 295.466002 
L 104.609112 295.304506 
L 104.611607 280.61624 
L 104.611795 279.021946 
L 104.627097 295.466456 
L 104.719197 295.339701 
L 104.869507 295.1413 
L 116.303776 294.56252 
L 141.571759 293.237633 
L 141.599834 293.775941 
L 141.604588 294.201465 
L 141.605633 289.735548 
L 141.606486 275.952758 
L 141.608384 294.201478 
L 141.641214 293.234546 
L 141.919452 293.38479 
L 141.960586 294.191864 
L 141.96448 292.902054 
L 141.966404 272.219224 
L 141.972222 294.191815 
L 142.036219 293.276081 
L 142.439368 293.134982 
L 142.8879 293.218428 
L 142.93588 293.880806 
L 142.941918 294.155123 
L 142.945726 291.439114 
L 142.946897 274.737015 
L 142.951876 294.155074 
L 143.005893 293.213541 
L 143.256106 293.096815 
L 162.857837 292.298086 
L 182.051209 291.492448 
L 190.218603 290.94366 
L 206.145025 289.674044 
L 209.411984 289.852217 
L 224.930038 290.654455 
L 225.338408 288.074726 
L 225.746778 290.693196 
L 244.123423 291.445046 
L 268.625618 292.205999 
L 295.578035 292.824854 
L 331.922963 293.418911 
L 373.985072 293.895892 
L 387.461283 294.01316 
L 387.869653 294.43812 
L 388.278023 294.019831 
L 398.487273 294.099434 
L 398.487273 294.099434 
" style="fill:none;stroke:#000000;stroke-dasharray:5.55,2.4;stroke-dashoffset:0;stroke-width:1.5;"/>
   </g>
   <g id="line2d_20">
    <path clip-path="url(#p5217ff6413)" d="M 73.832727 294.894255 
L 74.241003 295.486 
L 75.057522 295.400252 
L 75.465756 295.012915 
L 75.873964 293.726088 
L 76.28216 290.706052 
L 76.690253 294.645356 
L 76.690419 294.645047 
L 77.098678 293.565358 
L 77.506936 291.668555 
L 77.915195 288.738131 
L 78.72632 279.549477 
L 79.139972 273.323655 
L 79.572834 266.03821 
L 79.956489 237.986353 
L 79.966696 295.246204 
L 81.186536 295.10539 
L 81.594414 295.03205 
L 81.997783 293.844043 
L 82.002438 295.034141 
L 82.136591 212.76527 
L 82.144756 244.569401 
L 82.406042 294.942701 
L 82.410545 294.941485 
L 82.818705 294.823691 
L 83.226896 294.87456 
L 84.451445 294.380723 
L 85.257864 293.575125 
L 85.67769 293.254899 
L 86.085542 293.279696 
L 87.718569 292.007577 
L 88.943547 290.674929 
L 89.351883 288.187947 
L 90.576912 285.509741 
L 91.801959 282.324737 
L 93.435373 277.40149 
L 94.660443 273.13359 
L 95.068801 271.031085 
L 95.47716 270.079888 
L 97.927323 260.239601 
L 101.602589 245.11547 
L 102.010953 289.215196 
L 102.827682 288.799587 
L 104.295242 287.864142 
L 104.318701 286.249021 
L 104.327046 246.765388 
L 104.327717 72.865093 
L 104.390152 287.896937 
L 104.414441 287.890007 
L 104.579837 287.624157 
L 104.604231 286.140072 
L 104.611217 261.495715 
L 104.611981 87.747219 
L 104.685793 287.685488 
L 104.719197 287.666706 
L 105.277873 287.298621 
L 112.628469 282.494942 
L 118.345616 278.782724 
L 118.753983 277.798371 
L 123.654402 274.746405 
L 125.287875 273.801765 
L 125.696244 258.350673 
L 126.104612 273.344597 
L 131.005036 270.834115 
L 134.680356 269.210762 
L 137.947308 267.991417 
L 139.172415 267.617136 
L 139.580784 281.272045 
L 141.601151 280.844932 
L 141.605206 276.740391 
L 141.606486 224.1483 
L 141.616967 280.919033 
L 141.641214 280.892092 
L 141.952511 280.732192 
L 141.963128 276.736006 
L 141.966404 191.974744 
L 141.998458 280.851172 
L 142.036219 280.827387 
L 142.93588 280.57451 
L 142.944537 276.094413 
L 142.946897 205.682768 
L 142.972128 280.677111 
L 143.005893 280.651064 
L 145.297952 280.246205 
L 151.831861 279.282596 
L 158.774142 278.477704 
L 166.533163 277.813226 
L 175.517294 277.276449 
L 187.768385 276.798304 
L 191.035343 276.684422 
L 191.443713 280.96792 
L 205.736655 280.113225 
L 207.370134 280.134219 
L 224.930038 280.845256 
L 225.338408 241.765323 
L 225.746778 280.879392 
L 258.008 282.256351 
L 258.41637 283.583924 
L 349.482872 286.557741 
L 396.445423 287.857744 
L 398.487273 287.908957 
L 398.487273 287.908957 
" style="fill:none;stroke:#000000;stroke-linecap:square;stroke-width:1.5;"/>
   </g>
   <g id="line2d_21">
    <path clip-path="url(#p5217ff6413)" d="M 73.832727 295.479272 
L 75.465756 295.460678 
L 75.873964 295.35898 
L 76.28216 295.020097 
L 76.690419 295.200585 
L 77.098678 294.682824 
L 77.506936 293.603672 
L 77.915195 291.672445 
L 78.323454 288.604656 
L 78.731713 284.169015 
L 79.139972 278.216369 
L 79.572834 270.195395 
L 79.956489 241.147393 
L 79.966696 295.1953 
L 80.371918 295.024424 
L 80.778928 294.983397 
L 81.594414 294.507169 
L 81.997783 275.645724 
L 82.002438 294.156627 
L 82.136591 210.257516 
L 82.144756 235.804207 
L 82.406042 293.739117 
L 82.410545 293.734002 
L 83.226896 292.738151 
L 84.043299 291.09936 
L 84.451445 290.064028 
L 84.859344 289.641723 
L 85.67769 287.032243 
L 86.901972 281.217244 
L 87.718569 276.676675 
L 88.943547 268.34679 
L 89.351883 263.153137 
L 90.985259 248.662972 
L 94.252086 216.494361 
L 96.702239 193.057289 
L 98.335684 179.312172 
L 99.969135 167.382719 
L 100.785861 162.773922 
L 101.602589 158.030824 
L 102.010953 262.188769 
L 102.827682 260.165326 
L 104.265282 255.979924 
L 104.304237 254.447884 
L 104.3262 229.800505 
L 104.334319 105.553951 
L 104.414441 255.701932 
L 104.504765 255.500538 
L 104.575933 254.821 
L 104.602674 250.625061 
L 104.611414 189.147409 
L 104.619731 53.568 
L 104.695497 254.941792 
L 104.719197 254.920537 
L 104.869507 254.569525 
L 108.136435 246.023773 
L 110.586634 240.161867 
L 113.036837 234.9097 
L 115.078674 231.043546 
L 117.120512 227.674103 
L 118.345616 225.896413 
L 118.753983 222.971332 
L 120.387456 220.962848 
L 122.020928 219.280704 
L 123.654402 217.913309 
L 125.287875 216.843087 
L 125.696244 178.295848 
L 126.104612 216.413509 
L 128.146455 215.640252 
L 129.77993 215.281619 
L 131.413405 215.140807 
L 133.04688 215.201091 
L 135.088725 215.513864 
L 136.313832 215.884487 
L 138.355677 216.554977 
L 139.172415 216.964455 
L 139.580784 240.94953 
L 141.593249 240.734633 
L 141.603652 238.816661 
L 141.606486 214.771782 
L 141.641214 240.82818 
L 141.931854 240.688796 
L 141.955585 239.525507 
L 141.965556 215.77176 
L 141.983325 191.836878 
L 142.036219 240.786425 
L 142.921666 240.639025 
L 142.940439 238.932797 
L 142.946897 208.169325 
L 143.005893 240.753 
L 143.664476 240.69149 
L 146.52306 240.766172 
L 149.790015 241.083746 
L 153.465339 241.686254 
L 157.549033 242.607096 
L 162.041098 243.86726 
L 167.349902 245.594334 
L 174.700555 248.244877 
L 191.035343 254.413094 
L 191.443713 258.233208 
L 223.704928 266.593357 
L 224.930038 266.886308 
L 225.338408 255.948556 
L 225.746778 267.080053 
L 231.463956 268.400513 
L 231.872326 264.326849 
L 232.280696 268.583956 
L 242.898313 270.848674 
L 253.9243 272.968006 
L 258.008 273.695324 
L 258.41637 274.195792 
L 270.667468 276.09243 
L 283.735306 277.885264 
L 297.211515 279.509816 
L 311.912834 281.055358 
L 327.839263 282.501483 
L 345.399173 283.865581 
L 364.592562 285.129099 
L 386.236172 286.324064 
L 398.487273 286.911578 
L 398.487273 286.911578 
" style="fill:none;stroke:#ff0000;stroke-linecap:square;stroke-width:1.5;"/>
   </g>
   <g id="line2d_22">
    <path clip-path="url(#p5217ff6413)" d="M 73.832727 295.476485 
L 75.873964 295.419921 
L 76.28216 295.238285 
L 76.690419 295.370555 
L 77.098678 295.145617 
L 77.506936 294.638336 
L 77.915195 293.661259 
L 78.323454 291.999396 
L 78.731713 289.439231 
L 79.139972 285.795363 
L 79.572834 280.601741 
L 79.956489 256.09345 
L 79.966696 295.055893 
L 80.371918 294.786102 
L 80.778928 294.811785 
L 81.594414 294.110389 
L 81.997783 290.703886 
L 82.002438 293.627015 
L 82.136591 239.365981 
L 82.144756 253.29434 
L 82.406042 292.907516 
L 82.410545 292.898303 
L 83.226896 291.041634 
L 84.043299 288.098166 
L 85.257864 282.257336 
L 86.493716 273.663283 
L 87.718569 262.690514 
L 88.943547 250.316559 
L 89.760223 240.397525 
L 92.618664 210.768772 
L 94.252086 196.058525 
L 95.885519 183.507306 
L 97.1106 175.554331 
L 98.335684 168.80411 
L 99.560772 163.163631 
L 100.785861 158.605543 
L 101.602589 156.048624 
L 102.010953 225.294538 
L 103.644412 218.35671 
L 104.282719 215.600158 
L 104.318701 212.257453 
L 104.329234 178.470755 
L 104.331313 178.798527 
L 104.332576 86.231548 
L 104.414441 215.385203 
L 104.554143 214.828375 
L 104.596865 213.486972 
L 104.611016 198.528772 
L 104.617416 65.722468 
L 104.677283 214.408434 
L 104.719197 214.328309 
L 104.869507 213.711601 
L 106.50297 208.334002 
L 107.728068 204.925264 
L 108.953167 202.047219 
L 110.178267 199.678697 
L 111.403368 197.793499 
L 112.628469 196.36061 
L 113.853571 195.33905 
L 115.078674 194.690493 
L 116.303776 194.37692 
L 117.52888 194.358885 
L 118.345616 194.493402 
L 118.753983 193.402064 
L 119.979088 193.942339 
L 121.61256 194.944482 
L 123.246033 196.20576 
L 125.287875 198.059424 
L 125.696244 173.712352 
L 126.104612 198.866703 
L 129.371561 202.350589 
L 135.088725 208.891181 
L 139.172415 213.579725 
L 139.580784 221.982738 
L 141.593249 223.712197 
L 141.604588 223.485354 
L 141.616967 217.897304 
L 141.641214 223.760692 
L 141.942474 223.982447 
L 141.957858 223.884018 
L 141.965774 221.818147 
L 141.977905 195.19857 
L 142.036219 224.084526 
L 142.847737 224.64991 
L 142.921666 224.81001 
L 142.943887 224.58628 
L 142.955313 222.58707 
L 142.957914 206.454596 
L 143.005893 224.890687 
L 143.256106 224.989556 
L 155.915555 235.40677 
L 161.224359 239.421496 
L 166.124793 242.862661 
L 171.025228 246.045288 
L 176.334034 249.393081 
L 176.742403 249.445448 
L 182.051209 252.322196 
L 187.360015 254.952673 
L 191.035343 256.642052 
L 191.443713 257.94158 
L 197.569259 260.424902 
L 204.103176 262.820452 
L 211.045463 265.247855 
L 211.453833 265.239183 
L 218.80449 267.403568 
L 224.930038 269.037147 
L 225.338408 257.005647 
L 225.746778 269.244288 
L 233.914175 271.190009 
L 242.898313 273.093204 
L 252.290821 274.855717 
L 258.008 275.829514 
L 258.41637 276.134965 
L 269.442358 277.791787 
L 281.285086 279.345995 
L 294.352925 280.835478 
L 308.645874 282.240454 
L 324.572303 283.580507 
L 342.540583 284.86208 
L 362.550712 286.060585 
L 385.011062 287.179936 
L 398.487273 287.758681 
L 398.487273 287.758681 
" style="fill:none;stroke:#0000ff;stroke-linecap:square;stroke-width:1.5;"/>
   </g>
   <g id="line2d_23">
    <path clip-path="url(#p5217ff6413)" d="M 73.832727 295.487022 
L 78.323454 295.423765 
L 79.139972 295.20182 
L 79.956489 294.667063 
L 79.966696 295.486993 
L 81.594414 295.483747 
L 81.997783 290.054865 
L 82.002438 295.480389 
L 82.136591 293.282185 
L 82.144756 294.476405 
L 82.410545 295.475913 
L 90.168566 295.250503 
L 92.618664 294.900212 
L 94.660443 294.424741 
L 95.068801 292.790999 
L 95.47716 294.181349 
L 97.927323 293.263312 
L 99.969135 292.258857 
L 101.602589 291.311565 
L 102.010953 294.43248 
L 104.207153 294.034824 
L 104.265282 293.64559 
L 104.310703 290.749757 
L 104.328869 275.912005 
L 104.329234 199.620479 
L 104.414441 293.873496 
L 104.49035 294.048463 
L 104.538169 293.937035 
L 104.583272 293.038604 
L 104.609653 284.041674 
L 104.613589 205.914222 
L 104.706566 293.981754 
L 104.733612 294.011659 
L 117.937248 291.534609 
L 125.287875 290.233979 
L 125.696244 288.758719 
L 126.104612 290.108853 
L 132.230143 289.295336 
L 138.764046 288.647288 
L 139.172415 288.615286 
L 139.580784 289.534518 
L 141.571759 289.351901 
L 141.596005 288.410893 
L 141.609969 262.108301 
L 141.641214 289.349988 
L 141.911466 289.105897 
L 141.945626 287.232947 
L 141.969342 264.565756 
L 141.970045 246.288895 
L 142.036219 289.226987 
L 142.439368 289.408889 
L 142.847737 289.394059 
L 142.913466 288.876968 
L 142.938481 283.760721 
L 142.950756 251.837511 
L 143.005893 289.227777 
L 143.256106 289.379997 
L 150.606753 289.249704 
L 160.815989 289.318185 
L 188.585125 289.707675 
L 191.035343 289.63978 
L 191.443713 289.96593 
L 197.977629 289.632353 
L 206.553395 289.172925 
L 223.296558 289.963233 
L 224.930038 290.031827 
L 225.338408 272.682665 
L 225.746778 290.065423 
L 245.756902 290.770216 
L 285.777156 291.878614 
L 322.122083 292.464631 
L 372.351592 293.003375 
L 387.461283 293.133528 
L 387.869653 292.632935 
L 388.278023 293.140243 
L 398.487273 293.221665 
L 398.487273 293.221665 
" style="fill:none;stroke:#008000;stroke-linecap:square;stroke-width:1.5;"/>
   </g>
   <g id="patch_3">
    <path d="M 57.6 307.584 
L 57.6 41.472 
" style="fill:none;stroke:#000000;stroke-linecap:square;stroke-linejoin:miter;stroke-width:0.8;"/>
   </g>
   <g id="patch_4">
    <path d="M 414.72 307.584 
L 414.72 41.472 
" style="fill:none;stroke:#000000;stroke-linecap:square;stroke-linejoin:miter;stroke-width:0.8;"/>
   </g>
   <g id="patch_5">
    <path d="M 57.6 307.584 
L 414.72 307.584 
" style="fill:none;stroke:#000000;stroke-linecap:square;stroke-linejoin:miter;stroke-width:0.8;"/>
   </g>
   <g id="patch_6">
    <path d="M 57.6 41.472 
L 414.72 41.472 
" style="fill:none;stroke:#000000;stroke-linecap:square;stroke-linejoin:miter;stroke-width:0.8;"/>
   </g>
   <g id="legend_1">
    <g id="patch_7">
     <path d="M 339.777813 122.862625 
L 407.72 122.862625 
Q 409.72 122.862625 409.72 120.862625 
L 409.72 48.472 
Q 409.72 46.472 407.72 46.472 
L 339.777813 46.472 
Q 337.777813 46.472 337.777813 48.472 
L 337.777813 120.862625 
Q 337.777813 122.862625 339.777813 122.862625 
z
" style="fill:#ffffff;opacity:0.8;stroke:#cccccc;stroke-linejoin:miter;"/>
    </g>
    <g id="line2d_24">
     <path d="M 341.777813 54.570438 
L 361.777813 54.570438 
" style="fill:none;stroke:#000000;stroke-dasharray:5.55,2.4;stroke-dashoffset:0;stroke-width:1.5;"/>
    </g>
    <g id="line2d_25"/>
    <g id="text_20">
     <!-- 0 sec -->
     <g transform="translate(369.777813 58.070438)scale(0.1 -0.1)">
      <defs>
       <path id="DejaVuSans-32"/>
       <path d="M 44.28125 53.078125 
L 44.28125 44.578125 
Q 40.484375 46.53125 36.375 47.5 
Q 32.28125 48.484375 27.875 48.484375 
Q 21.1875 48.484375 17.84375 46.4375 
Q 14.5 44.390625 14.5 40.28125 
Q 14.5 37.15625 16.890625 35.375 
Q 19.28125 33.59375 26.515625 31.984375 
L 29.59375 31.296875 
Q 39.15625 29.25 43.1875 25.515625 
Q 47.21875 21.78125 47.21875 15.09375 
Q 47.21875 7.46875 41.1875 3.015625 
Q 35.15625 -1.421875 24.609375 -1.421875 
Q 20.21875 -1.421875 15.453125 -0.5625 
Q 10.6875 0.296875 5.421875 2 
L 5.421875 11.28125 
Q 10.40625 8.6875 15.234375 7.390625 
Q 20.0625 6.109375 24.8125 6.109375 
Q 31.15625 6.109375 34.5625 8.28125 
Q 37.984375 10.453125 37.984375 14.40625 
Q 37.984375 18.0625 35.515625 20.015625 
Q 33.0625 21.96875 24.703125 23.78125 
L 21.578125 24.515625 
Q 13.234375 26.265625 9.515625 29.90625 
Q 5.8125 33.546875 5.8125 39.890625 
Q 5.8125 47.609375 11.28125 51.796875 
Q 16.75 56 26.8125 56 
Q 31.78125 56 36.171875 55.265625 
Q 40.578125 54.546875 44.28125 53.078125 
z
" id="DejaVuSans-115"/>
       <path d="M 48.78125 52.59375 
L 48.78125 44.1875 
Q 44.96875 46.296875 41.140625 47.34375 
Q 37.3125 48.390625 33.40625 48.390625 
Q 24.65625 48.390625 19.8125 42.84375 
Q 14.984375 37.3125 14.984375 27.296875 
Q 14.984375 17.28125 19.8125 11.734375 
Q 24.65625 6.203125 33.40625 6.203125 
Q 37.3125 6.203125 41.140625 7.25 
Q 44.96875 8.296875 48.78125 10.40625 
L 48.78125 2.09375 
Q 45.015625 0.34375 40.984375 -0.53125 
Q 36.96875 -1.421875 32.421875 -1.421875 
Q 20.0625 -1.421875 12.78125 6.34375 
Q 5.515625 14.109375 5.515625 27.296875 
Q 5.515625 40.671875 12.859375 48.328125 
Q 20.21875 56 33.015625 56 
Q 37.15625 56 41.109375 55.140625 
Q 45.0625 54.296875 48.78125 52.59375 
z
" id="DejaVuSans-99"/>
      </defs>
      <use xlink:href="#DejaVuSans-48"/>
      <use x="63.623047" xlink:href="#DejaVuSans-32"/>
      <use x="95.410156" xlink:href="#DejaVuSans-115"/>
      <use x="147.509766" xlink:href="#DejaVuSans-101"/>
      <use x="209.033203" xlink:href="#DejaVuSans-99"/>
     </g>
    </g>
    <g id="line2d_26">
     <path d="M 341.777813 69.248563 
L 361.777813 69.248563 
" style="fill:none;stroke:#000000;stroke-linecap:square;stroke-width:1.5;"/>
    </g>
    <g id="line2d_27"/>
    <g id="text_21">
     <!-- 0.2 sec -->
     <g transform="translate(369.777813 72.748563)scale(0.1 -0.1)">
      <defs>
       <path d="M 10.6875 12.40625 
L 21 12.40625 
L 21 0 
L 10.6875 0 
z
" id="DejaVuSans-46"/>
      </defs>
      <use xlink:href="#DejaVuSans-48"/>
      <use x="63.623047" xlink:href="#DejaVuSans-46"/>
      <use x="95.410156" xlink:href="#DejaVuSans-50"/>
      <use x="159.033203" xlink:href="#DejaVuSans-32"/>
      <use x="190.820312" xlink:href="#DejaVuSans-115"/>
      <use x="242.919922" xlink:href="#DejaVuSans-101"/>
      <use x="304.443359" xlink:href="#DejaVuSans-99"/>
     </g>
    </g>
    <g id="line2d_28">
     <path d="M 341.777813 83.926688 
L 361.777813 83.926688 
" style="fill:none;stroke:#ff0000;stroke-linecap:square;stroke-width:1.5;"/>
    </g>
    <g id="line2d_29"/>
    <g id="text_22">
     <!-- 1.2 sec -->
     <g transform="translate(369.777813 87.426688)scale(0.1 -0.1)">
      <use xlink:href="#DejaVuSans-49"/>
      <use x="63.623047" xlink:href="#DejaVuSans-46"/>
      <use x="95.410156" xlink:href="#DejaVuSans-50"/>
      <use x="159.033203" xlink:href="#DejaVuSans-32"/>
      <use x="190.820312" xlink:href="#DejaVuSans-115"/>
      <use x="242.919922" xlink:href="#DejaVuSans-101"/>
      <use x="304.443359" xlink:href="#DejaVuSans-99"/>
     </g>
    </g>
    <g id="line2d_30">
     <path d="M 341.777813 98.604813 
L 361.777813 98.604813 
" style="fill:none;stroke:#0000ff;stroke-linecap:square;stroke-width:1.5;"/>
    </g>
    <g id="line2d_31"/>
    <g id="text_23">
     <!-- 2.2 sec -->
     <g transform="translate(369.777813 102.104813)scale(0.1 -0.1)">
      <use xlink:href="#DejaVuSans-50"/>
      <use x="63.623047" xlink:href="#DejaVuSans-46"/>
      <use x="95.410156" xlink:href="#DejaVuSans-50"/>
      <use x="159.033203" xlink:href="#DejaVuSans-32"/>
      <use x="190.820312" xlink:href="#DejaVuSans-115"/>
      <use x="242.919922" xlink:href="#DejaVuSans-101"/>
      <use x="304.443359" xlink:href="#DejaVuSans-99"/>
     </g>
    </g>
    <g id="line2d_32">
     <path d="M 341.777813 113.282938 
L 361.777813 113.282938 
" style="fill:none;stroke:#008000;stroke-linecap:square;stroke-width:1.5;"/>
    </g>
    <g id="line2d_33"/>
    <g id="text_24">
     <!-- 4 sec -->
     <g transform="translate(369.777813 116.782938)scale(0.1 -0.1)">
      <use xlink:href="#DejaVuSans-52"/>
      <use x="63.623047" xlink:href="#DejaVuSans-32"/>
      <use x="95.410156" xlink:href="#DejaVuSans-115"/>
      <use x="147.509766" xlink:href="#DejaVuSans-101"/>
      <use x="209.033203" xlink:href="#DejaVuSans-99"/>
     </g>
    </g>
   </g>
  </g>
 </g>
 <defs>
  <clipPath id="p5217ff6413">
   <rect height="266.112" width="357.12" x="57.6" y="41.472"/>
  </clipPath>
 </defs>
</svg>
