<?xml version="1.0" encoding="utf-8" standalone="no"?>
<!DOCTYPE svg PUBLIC "-//W3C//DTD SVG 1.1//EN"
  "http://www.w3.org/Graphics/SVG/1.1/DTD/svg11.dtd">
<!-- Created with matplotlib (https://matplotlib.org/) -->
<svg height="345.6pt" version="1.1" viewBox="0 0 460.8 345.6" width="460.8pt" xmlns="http://www.w3.org/2000/svg" xmlns:xlink="http://www.w3.org/1999/xlink">
 <metadata>
  <rdf:RDF xmlns:cc="http://creativecommons.org/ns#" xmlns:dc="http://purl.org/dc/elements/1.1/" xmlns:rdf="http://www.w3.org/1999/02/22-rdf-syntax-ns#">
   <cc:Work>
    <dc:type rdf:resource="http://purl.org/dc/dcmitype/StillImage"/>
    <dc:date>2021-06-08T16:09:28.273608</dc:date>
    <dc:format>image/svg+xml</dc:format>
    <dc:creator>
     <cc:Agent>
      <dc:title>Matplotlib v3.3.1, https://matplotlib.org/</dc:title>
     </cc:Agent>
    </dc:creator>
   </cc:Work>
  </rdf:RDF>
 </metadata>
 <defs>
  <style type="text/css">*{stroke-linecap:butt;stroke-linejoin:round;}</style>
 </defs>
 <g id="figure_1">
  <g id="patch_1">
   <path d="M 0 345.6 
L 460.8 345.6 
L 460.8 0 
L 0 0 
z
" style="fill:#ffffff;"/>
  </g>
  <g id="axes_1">
   <g id="patch_2">
    <path d="M 57.6 307.584 
L 414.72 307.584 
L 414.72 41.472 
L 57.6 41.472 
z
" style="fill:#ffffff;"/>
   </g>
   <g id="matplotlib.axis_1">
    <g id="xtick_1">
     <g id="line2d_1">
      <defs>
       <path d="M 0 0 
L 0 3.5 
" id="m2f12b409b5" style="stroke:#000000;stroke-width:0.8;"/>
      </defs>
      <g>
       <use style="stroke:#000000;stroke-width:0.8;" x="72.311155" xlink:href="#m2f12b409b5" y="307.584"/>
      </g>
     </g>
     <g id="text_1">
      <!-- 0 -->
      <g transform="translate(69.129905 322.182437)scale(0.1 -0.1)">
       <defs>
        <path d="M 31.78125 66.40625 
Q 24.171875 66.40625 20.328125 58.90625 
Q 16.5 51.421875 16.5 36.375 
Q 16.5 21.390625 20.328125 13.890625 
Q 24.171875 6.390625 31.78125 6.390625 
Q 39.453125 6.390625 43.28125 13.890625 
Q 47.125 21.390625 47.125 36.375 
Q 47.125 51.421875 43.28125 58.90625 
Q 39.453125 66.40625 31.78125 66.40625 
z
M 31.78125 74.21875 
Q 44.046875 74.21875 50.515625 64.515625 
Q 56.984375 54.828125 56.984375 36.375 
Q 56.984375 17.96875 50.515625 8.265625 
Q 44.046875 -1.421875 31.78125 -1.421875 
Q 19.53125 -1.421875 13.0625 8.265625 
Q 6.59375 17.96875 6.59375 36.375 
Q 6.59375 54.828125 13.0625 64.515625 
Q 19.53125 74.21875 31.78125 74.21875 
z
" id="DejaVuSans-48"/>
       </defs>
       <use xlink:href="#DejaVuSans-48"/>
      </g>
     </g>
    </g>
    <g id="xtick_2">
     <g id="line2d_2">
      <g>
       <use style="stroke:#000000;stroke-width:0.8;" x="148.38422" xlink:href="#m2f12b409b5" y="307.584"/>
      </g>
     </g>
     <g id="text_2">
      <!-- 1000 -->
      <g transform="translate(135.65922 322.182437)scale(0.1 -0.1)">
       <defs>
        <path d="M 12.40625 8.296875 
L 28.515625 8.296875 
L 28.515625 63.921875 
L 10.984375 60.40625 
L 10.984375 69.390625 
L 28.421875 72.90625 
L 38.28125 72.90625 
L 38.28125 8.296875 
L 54.390625 8.296875 
L 54.390625 0 
L 12.40625 0 
z
" id="DejaVuSans-49"/>
       </defs>
       <use xlink:href="#DejaVuSans-49"/>
       <use x="63.623047" xlink:href="#DejaVuSans-48"/>
       <use x="127.246094" xlink:href="#DejaVuSans-48"/>
       <use x="190.869141" xlink:href="#DejaVuSans-48"/>
      </g>
     </g>
    </g>
    <g id="xtick_3">
     <g id="line2d_3">
      <g>
       <use style="stroke:#000000;stroke-width:0.8;" x="224.457286" xlink:href="#m2f12b409b5" y="307.584"/>
      </g>
     </g>
     <g id="text_3">
      <!-- 2000 -->
      <g transform="translate(211.732286 322.182437)scale(0.1 -0.1)">
       <defs>
        <path d="M 19.1875 8.296875 
L 53.609375 8.296875 
L 53.609375 0 
L 7.328125 0 
L 7.328125 8.296875 
Q 12.9375 14.109375 22.625 23.890625 
Q 32.328125 33.6875 34.8125 36.53125 
Q 39.546875 41.84375 41.421875 45.53125 
Q 43.3125 49.21875 43.3125 52.78125 
Q 43.3125 58.59375 39.234375 62.25 
Q 35.15625 65.921875 28.609375 65.921875 
Q 23.96875 65.921875 18.8125 64.3125 
Q 13.671875 62.703125 7.8125 59.421875 
L 7.8125 69.390625 
Q 13.765625 71.78125 18.9375 73 
Q 24.125 74.21875 28.421875 74.21875 
Q 39.75 74.21875 46.484375 68.546875 
Q 53.21875 62.890625 53.21875 53.421875 
Q 53.21875 48.921875 51.53125 44.890625 
Q 49.859375 40.875 45.40625 35.40625 
Q 44.1875 33.984375 37.640625 27.21875 
Q 31.109375 20.453125 19.1875 8.296875 
z
" id="DejaVuSans-50"/>
       </defs>
       <use xlink:href="#DejaVuSans-50"/>
       <use x="63.623047" xlink:href="#DejaVuSans-48"/>
       <use x="127.246094" xlink:href="#DejaVuSans-48"/>
       <use x="190.869141" xlink:href="#DejaVuSans-48"/>
      </g>
     </g>
    </g>
    <g id="xtick_4">
     <g id="line2d_4">
      <g>
       <use style="stroke:#000000;stroke-width:0.8;" x="300.530351" xlink:href="#m2f12b409b5" y="307.584"/>
      </g>
     </g>
     <g id="text_4">
      <!-- 3000 -->
      <g transform="translate(287.805351 322.182437)scale(0.1 -0.1)">
       <defs>
        <path d="M 40.578125 39.3125 
Q 47.65625 37.796875 51.625 33 
Q 55.609375 28.21875 55.609375 21.1875 
Q 55.609375 10.40625 48.1875 4.484375 
Q 40.765625 -1.421875 27.09375 -1.421875 
Q 22.515625 -1.421875 17.65625 -0.515625 
Q 12.796875 0.390625 7.625 2.203125 
L 7.625 11.71875 
Q 11.71875 9.328125 16.59375 8.109375 
Q 21.484375 6.890625 26.8125 6.890625 
Q 36.078125 6.890625 40.9375 10.546875 
Q 45.796875 14.203125 45.796875 21.1875 
Q 45.796875 27.640625 41.28125 31.265625 
Q 36.765625 34.90625 28.71875 34.90625 
L 20.21875 34.90625 
L 20.21875 43.015625 
L 29.109375 43.015625 
Q 36.375 43.015625 40.234375 45.921875 
Q 44.09375 48.828125 44.09375 54.296875 
Q 44.09375 59.90625 40.109375 62.90625 
Q 36.140625 65.921875 28.71875 65.921875 
Q 24.65625 65.921875 20.015625 65.03125 
Q 15.375 64.15625 9.8125 62.3125 
L 9.8125 71.09375 
Q 15.4375 72.65625 20.34375 73.4375 
Q 25.25 74.21875 29.59375 74.21875 
Q 40.828125 74.21875 47.359375 69.109375 
Q 53.90625 64.015625 53.90625 55.328125 
Q 53.90625 49.265625 50.4375 45.09375 
Q 46.96875 40.921875 40.578125 39.3125 
z
" id="DejaVuSans-51"/>
       </defs>
       <use xlink:href="#DejaVuSans-51"/>
       <use x="63.623047" xlink:href="#DejaVuSans-48"/>
       <use x="127.246094" xlink:href="#DejaVuSans-48"/>
       <use x="190.869141" xlink:href="#DejaVuSans-48"/>
      </g>
     </g>
    </g>
    <g id="xtick_5">
     <g id="line2d_5">
      <g>
       <use style="stroke:#000000;stroke-width:0.8;" x="376.603417" xlink:href="#m2f12b409b5" y="307.584"/>
      </g>
     </g>
     <g id="text_5">
      <!-- 4000 -->
      <g transform="translate(363.878417 322.182437)scale(0.1 -0.1)">
       <defs>
        <path d="M 37.796875 64.3125 
L 12.890625 25.390625 
L 37.796875 25.390625 
z
M 35.203125 72.90625 
L 47.609375 72.90625 
L 47.609375 25.390625 
L 58.015625 25.390625 
L 58.015625 17.1875 
L 47.609375 17.1875 
L 47.609375 0 
L 37.796875 0 
L 37.796875 17.1875 
L 4.890625 17.1875 
L 4.890625 26.703125 
z
" id="DejaVuSans-52"/>
       </defs>
       <use xlink:href="#DejaVuSans-52"/>
       <use x="63.623047" xlink:href="#DejaVuSans-48"/>
       <use x="127.246094" xlink:href="#DejaVuSans-48"/>
       <use x="190.869141" xlink:href="#DejaVuSans-48"/>
      </g>
     </g>
    </g>
    <g id="text_6">
     <!-- $\lambda$ (nm) -->
     <g transform="translate(219.66 335.860562)scale(0.1 -0.1)">
      <defs>
       <path d="M 36.71875 67.4375 
L 48.828125 0 
L 39.3125 0 
L 31.84375 40.4375 
L 5.125 0 
L -4.390625 0 
L 29.734375 52.4375 
L 28.03125 62.109375 
Q 26.953125 68.265625 21.734375 68.265625 
L 17.046875 68.265625 
L 18.5 75.984375 
L 24.21875 75.875 
Q 35.203125 75.734375 36.71875 67.4375 
z
" id="DejaVuSans-Oblique-955"/>
       <path id="DejaVuSans-32"/>
       <path d="M 31 75.875 
Q 24.46875 64.65625 21.28125 53.65625 
Q 18.109375 42.671875 18.109375 31.390625 
Q 18.109375 20.125 21.3125 9.0625 
Q 24.515625 -2 31 -13.1875 
L 23.1875 -13.1875 
Q 15.875 -1.703125 12.234375 9.375 
Q 8.59375 20.453125 8.59375 31.390625 
Q 8.59375 42.28125 12.203125 53.3125 
Q 15.828125 64.359375 23.1875 75.875 
z
" id="DejaVuSans-40"/>
       <path d="M 54.890625 33.015625 
L 54.890625 0 
L 45.90625 0 
L 45.90625 32.71875 
Q 45.90625 40.484375 42.875 44.328125 
Q 39.84375 48.1875 33.796875 48.1875 
Q 26.515625 48.1875 22.3125 43.546875 
Q 18.109375 38.921875 18.109375 30.90625 
L 18.109375 0 
L 9.078125 0 
L 9.078125 54.6875 
L 18.109375 54.6875 
L 18.109375 46.1875 
Q 21.34375 51.125 25.703125 53.5625 
Q 30.078125 56 35.796875 56 
Q 45.21875 56 50.046875 50.171875 
Q 54.890625 44.34375 54.890625 33.015625 
z
" id="DejaVuSans-110"/>
       <path d="M 52 44.1875 
Q 55.375 50.25 60.0625 53.125 
Q 64.75 56 71.09375 56 
Q 79.640625 56 84.28125 50.015625 
Q 88.921875 44.046875 88.921875 33.015625 
L 88.921875 0 
L 79.890625 0 
L 79.890625 32.71875 
Q 79.890625 40.578125 77.09375 44.375 
Q 74.3125 48.1875 68.609375 48.1875 
Q 61.625 48.1875 57.5625 43.546875 
Q 53.515625 38.921875 53.515625 30.90625 
L 53.515625 0 
L 44.484375 0 
L 44.484375 32.71875 
Q 44.484375 40.625 41.703125 44.40625 
Q 38.921875 48.1875 33.109375 48.1875 
Q 26.21875 48.1875 22.15625 43.53125 
Q 18.109375 38.875 18.109375 30.90625 
L 18.109375 0 
L 9.078125 0 
L 9.078125 54.6875 
L 18.109375 54.6875 
L 18.109375 46.1875 
Q 21.1875 51.21875 25.484375 53.609375 
Q 29.78125 56 35.6875 56 
Q 41.65625 56 45.828125 52.96875 
Q 50 49.953125 52 44.1875 
z
" id="DejaVuSans-109"/>
       <path d="M 8.015625 75.875 
L 15.828125 75.875 
Q 23.140625 64.359375 26.78125 53.3125 
Q 30.421875 42.28125 30.421875 31.390625 
Q 30.421875 20.453125 26.78125 9.375 
Q 23.140625 -1.703125 15.828125 -13.1875 
L 8.015625 -13.1875 
Q 14.5 -2 17.703125 9.0625 
Q 20.90625 20.125 20.90625 31.390625 
Q 20.90625 42.671875 17.703125 53.65625 
Q 14.5 64.65625 8.015625 75.875 
z
" id="DejaVuSans-41"/>
      </defs>
      <use transform="translate(0 0.015625)" xlink:href="#DejaVuSans-Oblique-955"/>
      <use transform="translate(59.179688 0.015625)" xlink:href="#DejaVuSans-32"/>
      <use transform="translate(90.966797 0.015625)" xlink:href="#DejaVuSans-40"/>
      <use transform="translate(129.980469 0.015625)" xlink:href="#DejaVuSans-110"/>
      <use transform="translate(193.359375 0.015625)" xlink:href="#DejaVuSans-109"/>
      <use transform="translate(290.771484 0.015625)" xlink:href="#DejaVuSans-41"/>
     </g>
    </g>
   </g>
   <g id="matplotlib.axis_2">
    <g id="ytick_1">
     <g id="line2d_6">
      <defs>
       <path d="M 0 0 
L -3.5 0 
" id="m740eab6591" style="stroke:#000000;stroke-width:0.8;"/>
      </defs>
      <g>
       <use style="stroke:#000000;stroke-width:0.8;" x="57.6" xlink:href="#m740eab6591" y="280.898628"/>
      </g>
     </g>
     <g id="text_7">
      <!-- −0.1 -->
      <g transform="translate(26.317187 284.697847)scale(0.1 -0.1)">
       <defs>
        <path d="M 10.59375 35.5 
L 73.1875 35.5 
L 73.1875 27.203125 
L 10.59375 27.203125 
z
" id="DejaVuSans-8722"/>
        <path d="M 10.6875 12.40625 
L 21 12.40625 
L 21 0 
L 10.6875 0 
z
" id="DejaVuSans-46"/>
       </defs>
       <use xlink:href="#DejaVuSans-8722"/>
       <use x="83.789062" xlink:href="#DejaVuSans-48"/>
       <use x="147.412109" xlink:href="#DejaVuSans-46"/>
       <use x="179.199219" xlink:href="#DejaVuSans-49"/>
      </g>
     </g>
    </g>
    <g id="ytick_2">
     <g id="line2d_7">
      <g>
       <use style="stroke:#000000;stroke-width:0.8;" x="57.6" xlink:href="#m740eab6591" y="229.34675"/>
      </g>
     </g>
     <g id="text_8">
      <!-- 0.0 -->
      <g transform="translate(34.696875 233.145968)scale(0.1 -0.1)">
       <use xlink:href="#DejaVuSans-48"/>
       <use x="63.623047" xlink:href="#DejaVuSans-46"/>
       <use x="95.410156" xlink:href="#DejaVuSans-48"/>
      </g>
     </g>
    </g>
    <g id="ytick_3">
     <g id="line2d_8">
      <g>
       <use style="stroke:#000000;stroke-width:0.8;" x="57.6" xlink:href="#m740eab6591" y="177.794871"/>
      </g>
     </g>
     <g id="text_9">
      <!-- 0.1 -->
      <g transform="translate(34.696875 181.59409)scale(0.1 -0.1)">
       <use xlink:href="#DejaVuSans-48"/>
       <use x="63.623047" xlink:href="#DejaVuSans-46"/>
       <use x="95.410156" xlink:href="#DejaVuSans-49"/>
      </g>
     </g>
    </g>
    <g id="ytick_4">
     <g id="line2d_9">
      <g>
       <use style="stroke:#000000;stroke-width:0.8;" x="57.6" xlink:href="#m740eab6591" y="126.242993"/>
      </g>
     </g>
     <g id="text_10">
      <!-- 0.2 -->
      <g transform="translate(34.696875 130.042211)scale(0.1 -0.1)">
       <use xlink:href="#DejaVuSans-48"/>
       <use x="63.623047" xlink:href="#DejaVuSans-46"/>
       <use x="95.410156" xlink:href="#DejaVuSans-50"/>
      </g>
     </g>
    </g>
    <g id="ytick_5">
     <g id="line2d_10">
      <g>
       <use style="stroke:#000000;stroke-width:0.8;" x="57.6" xlink:href="#m740eab6591" y="74.691114"/>
      </g>
     </g>
     <g id="text_11">
      <!-- 0.3 -->
      <g transform="translate(34.696875 78.490333)scale(0.1 -0.1)">
       <use xlink:href="#DejaVuSans-48"/>
       <use x="63.623047" xlink:href="#DejaVuSans-46"/>
       <use x="95.410156" xlink:href="#DejaVuSans-51"/>
      </g>
     </g>
    </g>
    <g id="text_12">
     <!-- Height (Mm) -->
     <g transform="translate(20.2375 205.731906)rotate(-90)scale(0.1 -0.1)">
      <defs>
       <path d="M 9.8125 72.90625 
L 19.671875 72.90625 
L 19.671875 43.015625 
L 55.515625 43.015625 
L 55.515625 72.90625 
L 65.375 72.90625 
L 65.375 0 
L 55.515625 0 
L 55.515625 34.71875 
L 19.671875 34.71875 
L 19.671875 0 
L 9.8125 0 
z
" id="DejaVuSans-72"/>
       <path d="M 56.203125 29.59375 
L 56.203125 25.203125 
L 14.890625 25.203125 
Q 15.484375 15.921875 20.484375 11.0625 
Q 25.484375 6.203125 34.421875 6.203125 
Q 39.59375 6.203125 44.453125 7.46875 
Q 49.3125 8.734375 54.109375 11.28125 
L 54.109375 2.78125 
Q 49.265625 0.734375 44.1875 -0.34375 
Q 39.109375 -1.421875 33.890625 -1.421875 
Q 20.796875 -1.421875 13.15625 6.1875 
Q 5.515625 13.8125 5.515625 26.8125 
Q 5.515625 40.234375 12.765625 48.109375 
Q 20.015625 56 32.328125 56 
Q 43.359375 56 49.78125 48.890625 
Q 56.203125 41.796875 56.203125 29.59375 
z
M 47.21875 32.234375 
Q 47.125 39.59375 43.09375 43.984375 
Q 39.0625 48.390625 32.421875 48.390625 
Q 24.90625 48.390625 20.390625 44.140625 
Q 15.875 39.890625 15.1875 32.171875 
z
" id="DejaVuSans-101"/>
       <path d="M 9.421875 54.6875 
L 18.40625 54.6875 
L 18.40625 0 
L 9.421875 0 
z
M 9.421875 75.984375 
L 18.40625 75.984375 
L 18.40625 64.59375 
L 9.421875 64.59375 
z
" id="DejaVuSans-105"/>
       <path d="M 45.40625 27.984375 
Q 45.40625 37.75 41.375 43.109375 
Q 37.359375 48.484375 30.078125 48.484375 
Q 22.859375 48.484375 18.828125 43.109375 
Q 14.796875 37.75 14.796875 27.984375 
Q 14.796875 18.265625 18.828125 12.890625 
Q 22.859375 7.515625 30.078125 7.515625 
Q 37.359375 7.515625 41.375 12.890625 
Q 45.40625 18.265625 45.40625 27.984375 
z
M 54.390625 6.78125 
Q 54.390625 -7.171875 48.1875 -13.984375 
Q 42 -20.796875 29.203125 -20.796875 
Q 24.46875 -20.796875 20.265625 -20.09375 
Q 16.0625 -19.390625 12.109375 -17.921875 
L 12.109375 -9.1875 
Q 16.0625 -11.328125 19.921875 -12.34375 
Q 23.78125 -13.375 27.78125 -13.375 
Q 36.625 -13.375 41.015625 -8.765625 
Q 45.40625 -4.15625 45.40625 5.171875 
L 45.40625 9.625 
Q 42.625 4.78125 38.28125 2.390625 
Q 33.9375 0 27.875 0 
Q 17.828125 0 11.671875 7.65625 
Q 5.515625 15.328125 5.515625 27.984375 
Q 5.515625 40.671875 11.671875 48.328125 
Q 17.828125 56 27.875 56 
Q 33.9375 56 38.28125 53.609375 
Q 42.625 51.21875 45.40625 46.390625 
L 45.40625 54.6875 
L 54.390625 54.6875 
z
" id="DejaVuSans-103"/>
       <path d="M 54.890625 33.015625 
L 54.890625 0 
L 45.90625 0 
L 45.90625 32.71875 
Q 45.90625 40.484375 42.875 44.328125 
Q 39.84375 48.1875 33.796875 48.1875 
Q 26.515625 48.1875 22.3125 43.546875 
Q 18.109375 38.921875 18.109375 30.90625 
L 18.109375 0 
L 9.078125 0 
L 9.078125 75.984375 
L 18.109375 75.984375 
L 18.109375 46.1875 
Q 21.34375 51.125 25.703125 53.5625 
Q 30.078125 56 35.796875 56 
Q 45.21875 56 50.046875 50.171875 
Q 54.890625 44.34375 54.890625 33.015625 
z
" id="DejaVuSans-104"/>
       <path d="M 18.3125 70.21875 
L 18.3125 54.6875 
L 36.8125 54.6875 
L 36.8125 47.703125 
L 18.3125 47.703125 
L 18.3125 18.015625 
Q 18.3125 11.328125 20.140625 9.421875 
Q 21.96875 7.515625 27.59375 7.515625 
L 36.8125 7.515625 
L 36.8125 0 
L 27.59375 0 
Q 17.1875 0 13.234375 3.875 
Q 9.28125 7.765625 9.28125 18.015625 
L 9.28125 47.703125 
L 2.6875 47.703125 
L 2.6875 54.6875 
L 9.28125 54.6875 
L 9.28125 70.21875 
z
" id="DejaVuSans-116"/>
       <path d="M 9.8125 72.90625 
L 24.515625 72.90625 
L 43.109375 23.296875 
L 61.8125 72.90625 
L 76.515625 72.90625 
L 76.515625 0 
L 66.890625 0 
L 66.890625 64.015625 
L 48.09375 14.015625 
L 38.1875 14.015625 
L 19.390625 64.015625 
L 19.390625 0 
L 9.8125 0 
z
" id="DejaVuSans-77"/>
      </defs>
      <use xlink:href="#DejaVuSans-72"/>
      <use x="75.195312" xlink:href="#DejaVuSans-101"/>
      <use x="136.71875" xlink:href="#DejaVuSans-105"/>
      <use x="164.501953" xlink:href="#DejaVuSans-103"/>
      <use x="227.978516" xlink:href="#DejaVuSans-104"/>
      <use x="291.357422" xlink:href="#DejaVuSans-116"/>
      <use x="330.566406" xlink:href="#DejaVuSans-32"/>
      <use x="362.353516" xlink:href="#DejaVuSans-40"/>
      <use x="401.367188" xlink:href="#DejaVuSans-77"/>
      <use x="487.646484" xlink:href="#DejaVuSans-109"/>
      <use x="585.058594" xlink:href="#DejaVuSans-41"/>
     </g>
    </g>
   </g>
   <g id="line2d_11">
    <path clip-path="url(#p1c779a5499)" d="M 73.832727 55.056523 
L 74.365259 54.481615 
L 74.973712 54.153832 
L 75.962676 53.922255 
L 76.114808 53.90915 
L 76.228861 54.410896 
L 77.636269 54.062387 
L 79.180653 53.85467 
L 79.435277 166.528989 
L 79.538096 56.818043 
L 79.698253 167.214292 
L 79.963018 167.041478 
L 80.298826 171.903626 
L 80.760089 176.117777 
L 81.026105 176.373102 
L 81.059557 176.323343 
L 81.292189 175.699886 
L 81.55832 53.568 
L 81.576854 67.947753 
L 81.820288 188.292711 
L 81.824484 188.288544 
L 82.356875 187.830926 
L 82.62309 188.51618 
L 83.421741 188.31631 
L 83.687922 188.28213 
L 83.954021 201.04944 
L 84.219796 204.545788 
L 84.477265 205.708121 
L 84.754674 205.928701 
L 85.020324 175.177095 
L 85.286416 218.335484 
L 85.552615 217.998193 
L 85.818857 219.591461 
L 86.351397 218.469785 
L 86.883973 217.833685 
L 87.682871 217.634989 
L 87.949175 217.603826 
L 88.215481 270.061397 
L 88.748099 278.051524 
L 89.280722 283.181818 
L 90.079663 287.675404 
L 90.87861 289.698494 
L 91.144927 289.894734 
L 91.411245 290.540061 
L 91.943881 290.750632 
L 93.275479 290.716344 
L 93.541799 262.230499 
L 93.80812 282.388762 
L 94.074441 290.518502 
L 94.607084 290.349917 
L 94.873406 270.987165 
L 95.139728 290.235619 
L 98.069281 289.528514 
L 100.466199 289.07554 
L 100.732523 193.981048 
L 100.998848 288.990225 
L 102.064148 288.832068 
L 102.213954 271.708036 
L 102.242797 180.2824 
L 102.24421 54.046516 
L 102.330473 282.541484 
L 102.395732 285.816985 
L 102.440284 283.234251 
L 102.491738 267.844856 
L 102.508525 137.912726 
L 102.509053 54.324092 
L 102.608943 285.199324 
L 102.622373 285.790659 
L 102.863124 288.667255 
L 103.395775 288.659565 
L 105.260054 288.292946 
L 105.52638 279.766166 
L 105.792706 288.198237 
L 110.053925 287.574 
L 115.114132 287.053613 
L 121.77231 286.590223 
L 134.822358 286.061801 
L 136.686652 286.048942 
L 136.950661 285.663744 
L 136.971015 282.096472 
L 136.975191 249.055929 
L 136.975986 64.657718 
L 137.008341 285.803396 
L 137.219307 286.048316 
L 137.294447 282.600792 
L 137.309521 254.876373 
L 137.311313 56.304959 
L 137.376358 285.547618 
L 137.485635 286.048446 
L 138.018291 286.049679 
L 138.183471 285.356148 
L 138.216975 280.233072 
L 138.223725 240.581655 
L 138.224816 57.369138 
L 138.284618 286.050816 
L 144.14383 286.188743 
L 155.59593 286.775969 
L 161.455146 287.271643 
L 166.781707 287.970129 
L 170.510299 288.660713 
L 172.640924 289.026561 
L 176.635845 289.773726 
L 179.299126 290.459659 
L 183.560376 291.696445 
L 186.489985 292.618561 
L 188.886939 293.396684 
L 196.077799 295.262054 
L 197.675768 295.47458 
L 214.720771 294.625415 
L 214.987099 96.381319 
L 215.253428 294.594004 
L 227.770853 293.975248 
L 243.750547 293.417962 
L 249.876096 293.219579 
L 250.142424 286.616494 
L 250.408753 293.202479 
L 262.127195 292.720464 
L 270.916028 292.370691 
L 271.182356 292.157513 
L 271.448684 292.351421 
L 290.890647 291.763588 
L 331.638873 290.670395 
L 331.905201 289.510769 
L 332.171529 290.652143 
L 354.276777 290.0097 
L 381.974919 289.426884 
L 390.763752 289.279346 
L 391.030081 287.206601 
L 391.296409 289.270862 
L 398.487273 289.161066 
L 398.487273 289.161066 
" style="fill:none;stroke:#000000;stroke-dasharray:5.55,2.4;stroke-dashoffset:0;stroke-width:1.5;"/>
   </g>
   <g id="line2d_12">
    <path clip-path="url(#p1c779a5499)" d="M 73.832727 89.73875 
L 74.098995 111.218172 
L 74.631517 109.576703 
L 75.164014 108.787618 
L 75.734443 108.340013 
L 76.114808 108.218756 
L 76.228861 117.45839 
L 77.29319 117.206872 
L 79.180653 117.052982 
L 79.435277 172.820706 
L 79.538096 107.665518 
L 79.698253 172.247787 
L 79.963018 171.896359 
L 80.298826 183.090527 
L 81.026105 186.944005 
L 81.292189 186.095267 
L 81.439922 152.861879 
L 81.55832 79.40119 
L 81.576854 125.130839 
L 81.820288 193.61116 
L 81.824484 193.609604 
L 82.356875 193.510797 
L 82.62309 193.755175 
L 83.687922 193.66968 
L 83.954021 201.112813 
L 84.219796 202.998316 
L 84.477265 203.568058 
L 84.754674 203.808255 
L 85.020324 172.782062 
L 85.286416 211.985043 
L 85.552615 211.637033 
L 85.818857 211.901429 
L 86.351397 211.238813 
L 86.883973 210.875682 
L 87.949175 210.625919 
L 88.215481 255.919961 
L 88.748099 263.177112 
L 89.280722 269.260947 
L 89.813348 271.680289 
L 90.079663 271.775517 
L 90.345978 271.033164 
L 90.612294 269.666002 
L 90.87861 275.851514 
L 91.677563 272.24748 
L 92.2102 267.692245 
L 93.275479 253.913349 
L 93.541799 226.735243 
L 93.80812 243.294967 
L 94.074441 242.867977 
L 94.607084 235.486591 
L 94.873406 227.085161 
L 95.139728 228.849436 
L 95.938695 217.599901 
L 96.737663 203.454594 
L 97.27031 192.951318 
L 98.601928 179.444651 
L 99.134577 175.335203 
L 99.93355 171.548319 
L 100.199874 281.3966 
L 100.466199 281.099501 
L 100.732523 186.327465 
L 100.998848 280.519627 
L 102.064148 279.436443 
L 102.202288 264.122387 
L 102.24086 209.303517 
L 102.24421 117.16181 
L 102.330473 272.241381 
L 102.395732 276.939269 
L 102.440284 273.043502 
L 102.493451 252.008724 
L 102.509053 117.680111 
L 102.586863 273.971072 
L 102.622373 276.826496 
L 102.863124 278.679598 
L 103.129449 278.436269 
L 103.395775 278.537312 
L 105.260054 277.001372 
L 105.52638 268.349521 
L 105.792706 276.328233 
L 107.656988 273.330707 
L 108.988619 271.403981 
L 109.254945 247.644587 
L 109.521272 270.676331 
L 111.385557 267.984557 
L 113.516171 264.397585 
L 115.646786 261.141076 
L 115.913113 260.157394 
L 117.511075 257.632856 
L 120.440674 253.21089 
L 122.038637 250.999061 
L 122.304965 156.180367 
L 122.571292 250.293366 
L 132.425409 237.662709 
L 133.757047 235.865238 
L 134.55603 234.734765 
L 134.822358 254.432974 
L 136.960357 253.366283 
L 136.972741 250.098328 
L 136.975986 134.138805 
L 137.008341 253.470637 
L 137.251292 253.314191 
L 137.289018 252.700688 
L 137.305597 244.310897 
L 137.311313 121.28013 
L 137.376358 253.279133 
L 137.485635 253.318687 
L 138.183471 252.930038 
L 138.211328 251.952693 
L 138.222617 224.106596 
L 138.224816 124.91276 
L 138.284618 253.010732 
L 141.214224 252.016913 
L 144.676486 251.111089 
L 151.867339 249.537914 
L 155.862258 248.904338 
L 160.389834 248.350282 
L 176.369517 247.029649 
L 181.163423 245.853853 
L 182.228735 245.412973 
L 183.02772 244.908583 
L 183.294048 281.761145 
L 184.625688 283.479266 
L 186.756313 284.662295 
L 188.62061 285.986861 
L 191.55022 288.427382 
L 192.082876 288.791147 
L 196.077799 289.933032 
L 197.409439 290.301905 
L 204.333972 288.91275 
L 205.399285 288.619739 
L 209.926864 285.476692 
L 213.122802 283.242785 
L 214.720771 279.292804 
L 214.987099 85.328658 
L 215.253428 278.006728 
L 215.786084 276.594216 
L 216.851397 268.990639 
L 217.91671 255.10336 
L 220.047335 222.826371 
L 221.378976 207.504285 
L 223.243274 193.007591 
L 226.439212 183.819629 
L 229.102494 176.639235 
L 229.635151 175.788189 
L 233.363746 171.658215 
L 237.092341 167.844214 
L 241.087264 164.072532 
L 245.348516 160.370966 
L 245.614844 160.149791 
L 245.881173 184.372405 
L 249.077112 176.275639 
L 250.408753 174.798274 
L 254.403676 170.679523 
L 258.664928 166.619531 
L 262.92618 162.866877 
L 267.45376 159.180459 
L 267.986417 158.836529 
L 273.57931 156.290702 
L 279.438532 153.871217 
L 285.564082 151.579582 
L 292.222289 149.329943 
L 299.146823 147.222733 
L 306.870343 145.112596 
L 314.860191 143.16188 
L 322.583711 141.493933 
L 331.905201 139.704082 
L 342.025676 137.98886 
L 353.211464 136.324024 
L 365.196237 134.757998 
L 378.246323 133.27814 
L 380.376949 133.056005 
L 380.643277 75.927683 
L 380.909606 133.001272 
L 395.557662 131.610423 
L 398.487273 131.356615 
L 398.487273 131.356615 
" style="fill:none;stroke:#ff0000;stroke-linecap:square;stroke-width:1.5;"/>
   </g>
   <g id="line2d_13">
    <path clip-path="url(#p1c779a5499)" d="M 73.832727 121.596138 
L 75.734443 121.596015 
L 76.114808 121.595316 
L 76.228861 121.8098 
L 78.397 121.670629 
L 79.180653 121.649688 
L 79.435277 183.46088 
L 79.538096 121.585468 
L 79.698253 182.939134 
L 79.963018 182.555219 
L 80.298826 194.777477 
L 80.760089 197.049112 
L 81.026105 197.689425 
L 81.059557 197.650567 
L 81.292189 197.37579 
L 81.55832 121.617893 
L 81.576854 121.983425 
L 81.820288 201.795044 
L 81.824484 201.78322 
L 82.356875 201.019001 
L 82.581018 207.094582 
L 82.62309 207.073311 
L 83.155531 205.869188 
L 83.687922 204.694458 
L 83.954021 219.71187 
L 84.219796 220.007122 
L 84.477265 219.568361 
L 84.754674 220.000462 
L 85.020324 175.690188 
L 85.286416 224.669892 
L 85.552615 224.373348 
L 85.818857 224.549193 
L 86.351397 223.761284 
L 86.883973 215.607884 
L 87.416568 208.194268 
L 87.682871 205.346092 
L 87.949175 200.504958 
L 89.01441 192.020637 
L 90.079663 185.546573 
L 91.411245 179.078435 
L 92.476519 174.996265 
L 93.541799 171.39883 
L 93.80812 170.896335 
L 94.340763 169.18762 
L 94.607084 124.157736 
L 94.873406 167.560317 
L 96.205018 164.098504 
L 97.536633 161.312221 
L 98.868252 158.742918 
L 99.93355 156.316459 
L 100.199874 255.108877 
L 100.466199 254.393578 
L 100.732523 199.377815 
L 100.998848 252.906597 
L 102.064148 250.096361 
L 102.186041 242.747416 
L 102.239683 210.970495 
L 102.250362 123.67153 
L 102.330473 245.657461 
L 102.395732 248.057656 
L 102.440284 246.032484 
L 102.493451 230.736787 
L 102.516273 122.046063 
L 102.586863 246.31317 
L 102.622373 247.549772 
L 102.863124 248.094819 
L 103.6621 245.95074 
L 105.260054 241.231355 
L 105.52638 234.345771 
L 105.792706 239.709279 
L 107.124336 236.010858 
L 108.988619 225.61879 
L 109.254945 159.011321 
L 109.521272 222.588389 
L 111.651884 210.063927 
L 113.516171 202.296255 
L 115.114132 196.336746 
L 115.646786 194.624051 
L 115.913113 191.023701 
L 117.777402 185.805362 
L 119.375365 181.912934 
L 121.239655 178.016119 
L 122.038637 176.503943 
L 122.304965 121.948526 
L 122.571292 175.543127 
L 124.701911 172.048559 
L 129.229478 165.401404 
L 131.360099 162.807212 
L 133.224392 160.839151 
L 134.55603 159.442556 
L 134.822358 192.6715 
L 136.972741 187.747271 
L 136.975986 146.991541 
L 136.995854 188.092381 
L 137.008341 188.078557 
L 137.299171 187.273436 
L 137.309271 182.406357 
L 137.327078 122.176062 
L 137.346033 187.375816 
L 137.376358 187.336762 
L 138.214551 185.561107 
L 138.223082 181.623617 
L 138.224816 139.56703 
L 138.255962 185.607098 
L 138.284618 185.569173 
L 140.415241 181.734051 
L 142.812191 177.954015 
L 145.209141 174.561877 
L 147.87242 171.182917 
L 153.465306 164.686986 
L 156.128586 162.076355 
L 160.123506 158.267781 
L 163.053114 155.319749 
L 165.982722 152.678852 
L 168.379675 150.540538 
L 171.309283 147.263124 
L 174.771549 143.447591 
L 178.233814 138.484016 
L 179.831782 135.537981 
L 181.163423 132.370555 
L 182.495063 128.995513 
L 183.02772 127.982272 
L 183.294048 150.682344 
L 186.489985 147.228203 
L 189.952251 143.546325 
L 193.947173 138.029036 
L 195.545142 135.234379 
L 196.876783 132.350944 
L 198.474752 128.793151 
L 199.273737 127.566586 
L 200.072721 126.699945 
L 201.138034 125.913879 
L 202.203346 125.361709 
L 203.534987 124.870471 
L 205.132956 124.45503 
L 207.263582 124.062289 
L 210.725848 123.632306 
L 214.720771 123.302241 
L 214.987099 121.596099 
L 215.253428 123.268241 
L 222.976945 122.888314 
L 234.429059 122.567474 
L 245.614844 122.375836 
L 245.881173 122.565231 
L 265.056806 122.28615 
L 296.749869 122.048444 
L 360.934984 121.840766 
L 380.376949 121.80579 
L 380.643277 121.586144 
L 380.909606 121.804945 
L 398.487273 121.779511 
L 398.487273 121.779511 
" style="fill:none;stroke:#ff0000;stroke-dasharray:9.6,2.4,1.5,2.4;stroke-dashoffset:0;stroke-width:1.5;"/>
   </g>
   <g id="line2d_14">
    <path clip-path="url(#p1c779a5499)" d="M 73.832727 153.111154 
L 79.180653 153.120926 
L 79.435277 184.163198 
L 79.538096 153.105723 
L 79.698253 183.618979 
L 79.963018 183.146443 
L 80.298826 195.71363 
L 80.679192 196.136031 
L 80.760089 196.109559 
L 81.026105 197.869032 
L 81.059557 197.713005 
L 81.292189 196.722738 
L 81.55832 153.109579 
L 81.569247 153.135291 
L 81.576854 153.172448 
L 81.820288 200.126111 
L 81.824484 200.099056 
L 82.356875 197.613946 
L 82.581018 199.912236 
L 82.62309 199.672806 
L 83.687922 193.40627 
L 83.954021 194.403064 
L 84.754674 188.148892 
L 85.020324 170.418602 
L 85.286416 184.53902 
L 86.617682 174.487152 
L 87.416568 167.22025 
L 87.682871 164.219355 
L 87.949175 159.029988 
L 88.48179 157.086232 
L 89.01441 156.167431 
L 89.813348 155.392496 
L 90.87861 154.843314 
L 92.476519 154.384932 
L 94.873406 154.016051 
L 98.601928 153.724733 
L 99.93355 153.658823 
L 100.199874 196.546341 
L 100.466199 195.418825 
L 100.732523 187.053221 
L 100.998848 193.24819 
L 102.232691 188.072658 
L 102.243137 177.059151 
L 102.248737 153.211087 
L 102.286133 188.20477 
L 102.330473 188.074855 
L 102.501146 187.123572 
L 102.508153 177.54828 
L 102.514117 153.166433 
L 102.539001 187.288174 
L 102.608943 187.078341 
L 106.85801 172.034759 
L 108.18964 166.144617 
L 108.988619 162.188856 
L 109.254945 153.387516 
L 109.521272 160.140312 
L 110.053925 158.786228 
L 110.586578 157.872674 
L 111.385557 156.998559 
L 112.450864 156.259705 
L 113.516171 155.768667 
L 115.114132 155.273466 
L 115.646786 155.152969 
L 115.913113 154.893024 
L 119.908019 154.399205 
L 122.038637 154.232033 
L 122.304965 153.191491 
L 122.571292 154.194162 
L 128.164168 153.916732 
L 134.55603 153.727437 
L 134.822358 154.790694 
L 136.983748 154.567737 
L 136.985751 153.767259 
L 137.001311 154.584391 
L 137.008341 154.58403 
L 137.318834 154.446425 
L 137.322029 153.214629 
L 137.348788 154.552857 
L 137.376358 154.551489 
L 138.232657 154.421667 
L 138.23508 153.308754 
L 138.255962 154.476392 
L 138.284618 154.475539 
L 146.540781 154.058854 
L 158.791866 153.745366 
L 178.233814 153.510256 
L 183.02772 153.474259 
L 183.294048 153.621543 
L 214.188115 153.408556 
L 214.720771 153.406267 
L 214.987099 153.106384 
L 215.253428 153.404016 
L 267.45376 153.294712 
L 391.829065 153.179607 
L 398.487273 153.176619 
L 398.487273 153.176619 
" style="fill:none;stroke:#0000ff;stroke-dasharray:5.55,2.4;stroke-dashoffset:0;stroke-width:1.5;"/>
   </g>
   <g id="line2d_15">
    <path clip-path="url(#p1c779a5499)" d="M 73.832727 181.302762 
L 79.180653 181.289841 
L 79.435277 183.026764 
L 79.538096 181.291155 
L 79.698253 183.088806 
L 79.963018 183.070347 
L 80.679192 183.704728 
L 81.026105 183.773772 
L 81.292189 183.674461 
L 81.439922 181.292261 
L 81.576854 181.319017 
L 81.820288 188.139063 
L 81.824484 188.122989 
L 82.200653 187.511227 
L 82.356875 187.299793 
L 82.62309 201.319306 
L 82.889311 200.737091 
L 82.961384 200.788938 
L 83.155531 200.589425 
L 83.687922 199.947007 
L 83.954021 226.290323 
L 84.219796 227.594467 
L 84.754674 228.839269 
L 85.020324 189.325917 
L 85.286416 241.550073 
L 85.552615 241.426284 
L 85.818857 243.638345 
L 86.617682 242.589031 
L 86.883973 242.348003 
L 87.150269 242.398808 
L 87.416568 242.751168 
L 87.949175 242.847089 
L 88.215481 258.446503 
L 88.748099 262.169244 
L 90.079663 278.674901 
L 90.87861 283.135654 
L 91.144927 283.573953 
L 91.411245 285.317947 
L 91.677563 285.745014 
L 92.2102 285.832606 
L 93.275479 285.566488 
L 93.541799 237.685135 
L 94.074441 284.875366 
L 94.607084 284.264395 
L 94.873406 249.558856 
L 95.139728 283.88174 
L 95.40605 283.621457 
L 95.672372 283.692664 
L 97.802957 281.549545 
L 99.93355 277.803901 
L 100.199874 283.35822 
L 100.466199 283.231773 
L 100.732523 190.053913 
L 100.998848 282.990322 
L 102.064148 282.55767 
L 102.235811 227.280718 
L 102.245624 181.297538 
L 102.330473 262.629701 
L 102.395732 274.240715 
L 102.440284 264.811582 
L 102.506884 206.104321 
L 102.510551 181.299985 
L 102.608943 272.113667 
L 102.622373 274.11627 
L 102.863124 282.260083 
L 103.129449 282.165674 
L 103.395775 282.218682 
L 104.993728 281.573739 
L 105.260054 281.387604 
L 105.52638 251.142696 
L 105.792706 281.025421 
L 108.18964 279.550998 
L 108.988619 279.114574 
L 109.254945 278.052865 
L 109.521272 278.84725 
L 111.918211 277.702739 
L 112.717191 277.415131 
L 116.17944 275.870972 
L 119.109038 274.285062 
L 121.239655 273.33835 
L 122.038637 273.033093 
L 122.304965 266.080662 
L 122.571292 272.838712 
L 125.500893 271.933405 
L 129.762133 270.866126 
L 134.55603 269.850957 
L 134.822358 271.186482 
L 136.686652 271.101966 
L 136.943631 269.902318 
L 136.968223 254.187648 
L 136.979231 181.401139 
L 137.008341 269.900532 
L 137.219307 271.089622 
L 137.289018 253.550138 
L 137.314706 181.313835 
L 137.376358 268.288224 
L 137.485635 271.085147 
L 138.018291 271.079869 
L 138.183471 267.017715 
L 138.220177 229.065874 
L 138.228412 181.324486 
L 138.284618 271.079186 
L 141.214224 271.179307 
L 144.410158 271.517054 
L 148.138748 272.137373 
L 151.867339 272.949446 
L 156.394914 274.492418 
L 159.058194 275.693745 
L 161.188818 276.688952 
L 164.118426 277.837474 
L 166.781707 279.086294 
L 168.912331 280.296101 
L 170.776627 281.576032 
L 171.309283 281.879134 
L 173.706236 282.834469 
L 176.369517 284.1394 
L 178.233814 285.272028 
L 180.364439 286.687916 
L 182.495063 287.696878 
L 183.02772 287.980653 
L 183.294048 288.444051 
L 185.424673 289.795527 
L 186.489985 290.474017 
L 189.153267 291.57937 
L 194.213501 293.805319 
L 197.675768 294.594066 
L 208.861551 293.928819 
L 214.720771 293.581451 
L 214.987099 181.288593 
L 215.253428 293.521045 
L 224.042258 292.642996 
L 234.695387 291.810117 
L 245.614844 291.138088 
L 245.881173 291.29931 
L 249.876096 291.039603 
L 250.142424 279.373924 
L 250.408753 291.006867 
L 265.589463 289.972194 
L 270.916028 289.377989 
L 271.182356 289.112747 
L 271.448684 289.321862 
L 282.634471 288.260947 
L 295.684556 287.251609 
L 307.669328 286.337275 
L 315.392848 284.763849 
L 323.915353 283.26184 
L 331.638873 282.071871 
L 331.905201 279.018455 
L 332.171529 281.994995 
L 334.035827 281.625322 
L 340.694034 279.15876 
L 347.884898 276.742894 
L 349.216539 276.217668 
L 355.34209 272.514528 
L 359.869671 269.766619 
L 365.462565 265.628395 
L 371.055459 261.504059 
L 376.382025 257.692082 
L 380.376949 255.437093 
L 380.643277 181.285013 
L 380.909606 255.143678 
L 387.301484 251.747384 
L 388.633126 251.261522 
L 390.763752 250.543843 
L 391.030081 247.757097 
L 391.296409 250.366773 
L 398.487273 248.064105 
L 398.487273 248.064105 
" style="fill:none;stroke:#0000ff;stroke-dasharray:9.6,2.4,1.5,2.4;stroke-dashoffset:0;stroke-width:1.5;"/>
   </g>
   <g id="patch_3">
    <path d="M 57.6 307.584 
L 57.6 41.472 
" style="fill:none;stroke:#000000;stroke-linecap:square;stroke-linejoin:miter;stroke-width:0.8;"/>
   </g>
   <g id="patch_4">
    <path d="M 414.72 307.584 
L 414.72 41.472 
" style="fill:none;stroke:#000000;stroke-linecap:square;stroke-linejoin:miter;stroke-width:0.8;"/>
   </g>
   <g id="patch_5">
    <path d="M 57.6 307.584 
L 414.72 307.584 
" style="fill:none;stroke:#000000;stroke-linecap:square;stroke-linejoin:miter;stroke-width:0.8;"/>
   </g>
   <g id="patch_6">
    <path d="M 57.6 41.472 
L 414.72 41.472 
" style="fill:none;stroke:#000000;stroke-linecap:square;stroke-linejoin:miter;stroke-width:0.8;"/>
   </g>
   <g id="text_13">
    <!-- $\tau=1$ -->
    <g transform="translate(221.34 35.472)scale(0.12 -0.12)">
     <defs>
      <path d="M 32.859375 9.96875 
Q 34.1875 7.625 39.453125 7.625 
L 43.75 7.625 
L 42.28125 0 
L 36.921875 0 
Q 28.125 0 25 4.6875 
Q 21.921875 9.46875 23.96875 19.828125 
L 29 45.703125 
L 8.453125 45.703125 
L 10.203125 54.6875 
L 60.640625 54.6875 
L 58.890625 45.703125 
L 38.1875 45.703125 
L 33.015625 19.28125 
Q 31.640625 12.203125 32.859375 9.96875 
z
" id="DejaVuSans-Oblique-964"/>
      <path d="M 10.59375 45.40625 
L 73.1875 45.40625 
L 73.1875 37.203125 
L 10.59375 37.203125 
z
M 10.59375 25.484375 
L 73.1875 25.484375 
L 73.1875 17.1875 
L 10.59375 17.1875 
z
" id="DejaVuSans-61"/>
     </defs>
     <use transform="translate(0 0.09375)" xlink:href="#DejaVuSans-Oblique-964"/>
     <use transform="translate(79.6875 0.09375)" xlink:href="#DejaVuSans-61"/>
     <use transform="translate(182.958984 0.09375)" xlink:href="#DejaVuSans-49"/>
    </g>
   </g>
   <g id="legend_1">
    <g id="patch_7">
     <path d="M 339.777813 122.862625 
L 407.72 122.862625 
Q 409.72 122.862625 409.72 120.862625 
L 409.72 48.472 
Q 409.72 46.472 407.72 46.472 
L 339.777813 46.472 
Q 337.777813 46.472 337.777813 48.472 
L 337.777813 120.862625 
Q 337.777813 122.862625 339.777813 122.862625 
z
" style="fill:#ffffff;opacity:0.8;stroke:#cccccc;stroke-linejoin:miter;"/>
    </g>
    <g id="line2d_16">
     <path d="M 341.777813 54.570438 
L 361.777813 54.570438 
" style="fill:none;stroke:#000000;stroke-dasharray:5.55,2.4;stroke-dashoffset:0;stroke-width:1.5;"/>
    </g>
    <g id="line2d_17"/>
    <g id="text_14">
     <!-- 0 sec -->
     <g transform="translate(369.777813 58.070438)scale(0.1 -0.1)">
      <defs>
       <path d="M 44.28125 53.078125 
L 44.28125 44.578125 
Q 40.484375 46.53125 36.375 47.5 
Q 32.28125 48.484375 27.875 48.484375 
Q 21.1875 48.484375 17.84375 46.4375 
Q 14.5 44.390625 14.5 40.28125 
Q 14.5 37.15625 16.890625 35.375 
Q 19.28125 33.59375 26.515625 31.984375 
L 29.59375 31.296875 
Q 39.15625 29.25 43.1875 25.515625 
Q 47.21875 21.78125 47.21875 15.09375 
Q 47.21875 7.46875 41.1875 3.015625 
Q 35.15625 -1.421875 24.609375 -1.421875 
Q 20.21875 -1.421875 15.453125 -0.5625 
Q 10.6875 0.296875 5.421875 2 
L 5.421875 11.28125 
Q 10.40625 8.6875 15.234375 7.390625 
Q 20.0625 6.109375 24.8125 6.109375 
Q 31.15625 6.109375 34.5625 8.28125 
Q 37.984375 10.453125 37.984375 14.40625 
Q 37.984375 18.0625 35.515625 20.015625 
Q 33.0625 21.96875 24.703125 23.78125 
L 21.578125 24.515625 
Q 13.234375 26.265625 9.515625 29.90625 
Q 5.8125 33.546875 5.8125 39.890625 
Q 5.8125 47.609375 11.28125 51.796875 
Q 16.75 56 26.8125 56 
Q 31.78125 56 36.171875 55.265625 
Q 40.578125 54.546875 44.28125 53.078125 
z
" id="DejaVuSans-115"/>
       <path d="M 48.78125 52.59375 
L 48.78125 44.1875 
Q 44.96875 46.296875 41.140625 47.34375 
Q 37.3125 48.390625 33.40625 48.390625 
Q 24.65625 48.390625 19.8125 42.84375 
Q 14.984375 37.3125 14.984375 27.296875 
Q 14.984375 17.28125 19.8125 11.734375 
Q 24.65625 6.203125 33.40625 6.203125 
Q 37.3125 6.203125 41.140625 7.25 
Q 44.96875 8.296875 48.78125 10.40625 
L 48.78125 2.09375 
Q 45.015625 0.34375 40.984375 -0.53125 
Q 36.96875 -1.421875 32.421875 -1.421875 
Q 20.0625 -1.421875 12.78125 6.34375 
Q 5.515625 14.109375 5.515625 27.296875 
Q 5.515625 40.671875 12.859375 48.328125 
Q 20.21875 56 33.015625 56 
Q 37.15625 56 41.109375 55.140625 
Q 45.0625 54.296875 48.78125 52.59375 
z
" id="DejaVuSans-99"/>
      </defs>
      <use xlink:href="#DejaVuSans-48"/>
      <use x="63.623047" xlink:href="#DejaVuSans-32"/>
      <use x="95.410156" xlink:href="#DejaVuSans-115"/>
      <use x="147.509766" xlink:href="#DejaVuSans-101"/>
      <use x="209.033203" xlink:href="#DejaVuSans-99"/>
     </g>
    </g>
    <g id="line2d_18">
     <path d="M 341.777813 69.248563 
L 361.777813 69.248563 
" style="fill:none;stroke:#ff0000;stroke-linecap:square;stroke-width:1.5;"/>
    </g>
    <g id="line2d_19"/>
    <g id="text_15">
     <!-- 0.2 sec -->
     <g transform="translate(369.777813 72.748563)scale(0.1 -0.1)">
      <use xlink:href="#DejaVuSans-48"/>
      <use x="63.623047" xlink:href="#DejaVuSans-46"/>
      <use x="95.410156" xlink:href="#DejaVuSans-50"/>
      <use x="159.033203" xlink:href="#DejaVuSans-32"/>
      <use x="190.820312" xlink:href="#DejaVuSans-115"/>
      <use x="242.919922" xlink:href="#DejaVuSans-101"/>
      <use x="304.443359" xlink:href="#DejaVuSans-99"/>
     </g>
    </g>
    <g id="line2d_20">
     <path d="M 341.777813 83.926688 
L 361.777813 83.926688 
" style="fill:none;stroke:#ff0000;stroke-dasharray:9.6,2.4,1.5,2.4;stroke-dashoffset:0;stroke-width:1.5;"/>
    </g>
    <g id="line2d_21"/>
    <g id="text_16">
     <!-- 1.2 sec -->
     <g transform="translate(369.777813 87.426688)scale(0.1 -0.1)">
      <use xlink:href="#DejaVuSans-49"/>
      <use x="63.623047" xlink:href="#DejaVuSans-46"/>
      <use x="95.410156" xlink:href="#DejaVuSans-50"/>
      <use x="159.033203" xlink:href="#DejaVuSans-32"/>
      <use x="190.820312" xlink:href="#DejaVuSans-115"/>
      <use x="242.919922" xlink:href="#DejaVuSans-101"/>
      <use x="304.443359" xlink:href="#DejaVuSans-99"/>
     </g>
    </g>
    <g id="line2d_22">
     <path d="M 341.777813 98.604813 
L 361.777813 98.604813 
" style="fill:none;stroke:#0000ff;stroke-dasharray:5.55,2.4;stroke-dashoffset:0;stroke-width:1.5;"/>
    </g>
    <g id="line2d_23"/>
    <g id="text_17">
     <!-- 2.2 sec -->
     <g transform="translate(369.777813 102.104813)scale(0.1 -0.1)">
      <use xlink:href="#DejaVuSans-50"/>
      <use x="63.623047" xlink:href="#DejaVuSans-46"/>
      <use x="95.410156" xlink:href="#DejaVuSans-50"/>
      <use x="159.033203" xlink:href="#DejaVuSans-32"/>
      <use x="190.820312" xlink:href="#DejaVuSans-115"/>
      <use x="242.919922" xlink:href="#DejaVuSans-101"/>
      <use x="304.443359" xlink:href="#DejaVuSans-99"/>
     </g>
    </g>
    <g id="line2d_24">
     <path d="M 341.777813 113.282938 
L 361.777813 113.282938 
" style="fill:none;stroke:#0000ff;stroke-dasharray:9.6,2.4,1.5,2.4;stroke-dashoffset:0;stroke-width:1.5;"/>
    </g>
    <g id="line2d_25"/>
    <g id="text_18">
     <!-- 4. sec -->
     <g transform="translate(369.777813 116.782938)scale(0.1 -0.1)">
      <use xlink:href="#DejaVuSans-52"/>
      <use x="63.623047" xlink:href="#DejaVuSans-46"/>
      <use x="95.410156" xlink:href="#DejaVuSans-32"/>
      <use x="127.197266" xlink:href="#DejaVuSans-115"/>
      <use x="179.296875" xlink:href="#DejaVuSans-101"/>
      <use x="240.820312" xlink:href="#DejaVuSans-99"/>
     </g>
    </g>
   </g>
  </g>
 </g>
 <defs>
  <clipPath id="p1c779a5499">
   <rect height="266.112" width="357.12" x="57.6" y="41.472"/>
  </clipPath>
 </defs>
</svg>
