<?xml version="1.0" encoding="utf-8" standalone="no"?>
<!DOCTYPE svg PUBLIC "-//W3C//DTD SVG 1.1//EN"
  "http://www.w3.org/Graphics/SVG/1.1/DTD/svg11.dtd">
<!-- Created with matplotlib (https://matplotlib.org/) -->
<svg height="345.6pt" version="1.1" viewBox="0 0 460.8 345.6" width="460.8pt" xmlns="http://www.w3.org/2000/svg" xmlns:xlink="http://www.w3.org/1999/xlink">
 <metadata>
  <rdf:RDF xmlns:cc="http://creativecommons.org/ns#" xmlns:dc="http://purl.org/dc/elements/1.1/" xmlns:rdf="http://www.w3.org/1999/02/22-rdf-syntax-ns#">
   <cc:Work>
    <dc:type rdf:resource="http://purl.org/dc/dcmitype/StillImage"/>
    <dc:date>2021-04-18T13:40:12.527506</dc:date>
    <dc:format>image/svg+xml</dc:format>
    <dc:creator>
     <cc:Agent>
      <dc:title>Matplotlib v3.3.1, https://matplotlib.org/</dc:title>
     </cc:Agent>
    </dc:creator>
   </cc:Work>
  </rdf:RDF>
 </metadata>
 <defs>
  <style type="text/css">*{stroke-linecap:butt;stroke-linejoin:round;}</style>
 </defs>
 <g id="figure_1">
  <g id="patch_1">
   <path d="M 0 345.6 
L 460.8 345.6 
L 460.8 0 
L 0 0 
z
" style="fill:#ffffff;"/>
  </g>
  <g id="axes_1">
   <g id="patch_2">
    <path d="M 57.6 307.584 
L 414.72 307.584 
L 414.72 41.472 
L 57.6 41.472 
z
" style="fill:#ffffff;"/>
   </g>
   <g id="matplotlib.axis_1">
    <g id="xtick_1">
     <g id="line2d_1">
      <defs>
       <path d="M 0 0 
L 0 3.5 
" id="m266897950b" style="stroke:#000000;stroke-width:0.8;"/>
      </defs>
      <g>
       <use style="stroke:#000000;stroke-width:0.8;" x="72.199573" xlink:href="#m266897950b" y="307.584"/>
      </g>
     </g>
     <g id="text_1">
      <!-- 0 -->
      <g transform="translate(69.018323 322.182437)scale(0.1 -0.1)">
       <defs>
        <path d="M 31.78125 66.40625 
Q 24.171875 66.40625 20.328125 58.90625 
Q 16.5 51.421875 16.5 36.375 
Q 16.5 21.390625 20.328125 13.890625 
Q 24.171875 6.390625 31.78125 6.390625 
Q 39.453125 6.390625 43.28125 13.890625 
Q 47.125 21.390625 47.125 36.375 
Q 47.125 51.421875 43.28125 58.90625 
Q 39.453125 66.40625 31.78125 66.40625 
z
M 31.78125 74.21875 
Q 44.046875 74.21875 50.515625 64.515625 
Q 56.984375 54.828125 56.984375 36.375 
Q 56.984375 17.96875 50.515625 8.265625 
Q 44.046875 -1.421875 31.78125 -1.421875 
Q 19.53125 -1.421875 13.0625 8.265625 
Q 6.59375 17.96875 6.59375 36.375 
Q 6.59375 54.828125 13.0625 64.515625 
Q 19.53125 74.21875 31.78125 74.21875 
z
" id="DejaVuSans-48"/>
       </defs>
       <use xlink:href="#DejaVuSans-48"/>
      </g>
     </g>
    </g>
    <g id="xtick_2">
     <g id="line2d_2">
      <g>
       <use style="stroke:#000000;stroke-width:0.8;" x="113.025448" xlink:href="#m266897950b" y="307.584"/>
      </g>
     </g>
     <g id="text_2">
      <!-- 500 -->
      <g transform="translate(103.481698 322.182437)scale(0.1 -0.1)">
       <defs>
        <path d="M 10.796875 72.90625 
L 49.515625 72.90625 
L 49.515625 64.59375 
L 19.828125 64.59375 
L 19.828125 46.734375 
Q 21.96875 47.46875 24.109375 47.828125 
Q 26.265625 48.1875 28.421875 48.1875 
Q 40.625 48.1875 47.75 41.5 
Q 54.890625 34.8125 54.890625 23.390625 
Q 54.890625 11.625 47.5625 5.09375 
Q 40.234375 -1.421875 26.90625 -1.421875 
Q 22.3125 -1.421875 17.546875 -0.640625 
Q 12.796875 0.140625 7.71875 1.703125 
L 7.71875 11.625 
Q 12.109375 9.234375 16.796875 8.0625 
Q 21.484375 6.890625 26.703125 6.890625 
Q 35.15625 6.890625 40.078125 11.328125 
Q 45.015625 15.765625 45.015625 23.390625 
Q 45.015625 31 40.078125 35.4375 
Q 35.15625 39.890625 26.703125 39.890625 
Q 22.75 39.890625 18.8125 39.015625 
Q 14.890625 38.140625 10.796875 36.28125 
z
" id="DejaVuSans-53"/>
       </defs>
       <use xlink:href="#DejaVuSans-53"/>
       <use x="63.623047" xlink:href="#DejaVuSans-48"/>
       <use x="127.246094" xlink:href="#DejaVuSans-48"/>
      </g>
     </g>
    </g>
    <g id="xtick_3">
     <g id="line2d_3">
      <g>
       <use style="stroke:#000000;stroke-width:0.8;" x="153.851323" xlink:href="#m266897950b" y="307.584"/>
      </g>
     </g>
     <g id="text_3">
      <!-- 1000 -->
      <g transform="translate(141.126323 322.182437)scale(0.1 -0.1)">
       <defs>
        <path d="M 12.40625 8.296875 
L 28.515625 8.296875 
L 28.515625 63.921875 
L 10.984375 60.40625 
L 10.984375 69.390625 
L 28.421875 72.90625 
L 38.28125 72.90625 
L 38.28125 8.296875 
L 54.390625 8.296875 
L 54.390625 0 
L 12.40625 0 
z
" id="DejaVuSans-49"/>
       </defs>
       <use xlink:href="#DejaVuSans-49"/>
       <use x="63.623047" xlink:href="#DejaVuSans-48"/>
       <use x="127.246094" xlink:href="#DejaVuSans-48"/>
       <use x="190.869141" xlink:href="#DejaVuSans-48"/>
      </g>
     </g>
    </g>
    <g id="xtick_4">
     <g id="line2d_4">
      <g>
       <use style="stroke:#000000;stroke-width:0.8;" x="194.677198" xlink:href="#m266897950b" y="307.584"/>
      </g>
     </g>
     <g id="text_4">
      <!-- 1500 -->
      <g transform="translate(181.952198 322.182437)scale(0.1 -0.1)">
       <use xlink:href="#DejaVuSans-49"/>
       <use x="63.623047" xlink:href="#DejaVuSans-53"/>
       <use x="127.246094" xlink:href="#DejaVuSans-48"/>
       <use x="190.869141" xlink:href="#DejaVuSans-48"/>
      </g>
     </g>
    </g>
    <g id="xtick_5">
     <g id="line2d_5">
      <g>
       <use style="stroke:#000000;stroke-width:0.8;" x="235.503073" xlink:href="#m266897950b" y="307.584"/>
      </g>
     </g>
     <g id="text_5">
      <!-- 2000 -->
      <g transform="translate(222.778073 322.182437)scale(0.1 -0.1)">
       <defs>
        <path d="M 19.1875 8.296875 
L 53.609375 8.296875 
L 53.609375 0 
L 7.328125 0 
L 7.328125 8.296875 
Q 12.9375 14.109375 22.625 23.890625 
Q 32.328125 33.6875 34.8125 36.53125 
Q 39.546875 41.84375 41.421875 45.53125 
Q 43.3125 49.21875 43.3125 52.78125 
Q 43.3125 58.59375 39.234375 62.25 
Q 35.15625 65.921875 28.609375 65.921875 
Q 23.96875 65.921875 18.8125 64.3125 
Q 13.671875 62.703125 7.8125 59.421875 
L 7.8125 69.390625 
Q 13.765625 71.78125 18.9375 73 
Q 24.125 74.21875 28.421875 74.21875 
Q 39.75 74.21875 46.484375 68.546875 
Q 53.21875 62.890625 53.21875 53.421875 
Q 53.21875 48.921875 51.53125 44.890625 
Q 49.859375 40.875 45.40625 35.40625 
Q 44.1875 33.984375 37.640625 27.21875 
Q 31.109375 20.453125 19.1875 8.296875 
z
" id="DejaVuSans-50"/>
       </defs>
       <use xlink:href="#DejaVuSans-50"/>
       <use x="63.623047" xlink:href="#DejaVuSans-48"/>
       <use x="127.246094" xlink:href="#DejaVuSans-48"/>
       <use x="190.869141" xlink:href="#DejaVuSans-48"/>
      </g>
     </g>
    </g>
    <g id="xtick_6">
     <g id="line2d_6">
      <g>
       <use style="stroke:#000000;stroke-width:0.8;" x="276.328949" xlink:href="#m266897950b" y="307.584"/>
      </g>
     </g>
     <g id="text_6">
      <!-- 2500 -->
      <g transform="translate(263.603949 322.182437)scale(0.1 -0.1)">
       <use xlink:href="#DejaVuSans-50"/>
       <use x="63.623047" xlink:href="#DejaVuSans-53"/>
       <use x="127.246094" xlink:href="#DejaVuSans-48"/>
       <use x="190.869141" xlink:href="#DejaVuSans-48"/>
      </g>
     </g>
    </g>
    <g id="xtick_7">
     <g id="line2d_7">
      <g>
       <use style="stroke:#000000;stroke-width:0.8;" x="317.154824" xlink:href="#m266897950b" y="307.584"/>
      </g>
     </g>
     <g id="text_7">
      <!-- 3000 -->
      <g transform="translate(304.429824 322.182437)scale(0.1 -0.1)">
       <defs>
        <path d="M 40.578125 39.3125 
Q 47.65625 37.796875 51.625 33 
Q 55.609375 28.21875 55.609375 21.1875 
Q 55.609375 10.40625 48.1875 4.484375 
Q 40.765625 -1.421875 27.09375 -1.421875 
Q 22.515625 -1.421875 17.65625 -0.515625 
Q 12.796875 0.390625 7.625 2.203125 
L 7.625 11.71875 
Q 11.71875 9.328125 16.59375 8.109375 
Q 21.484375 6.890625 26.8125 6.890625 
Q 36.078125 6.890625 40.9375 10.546875 
Q 45.796875 14.203125 45.796875 21.1875 
Q 45.796875 27.640625 41.28125 31.265625 
Q 36.765625 34.90625 28.71875 34.90625 
L 20.21875 34.90625 
L 20.21875 43.015625 
L 29.109375 43.015625 
Q 36.375 43.015625 40.234375 45.921875 
Q 44.09375 48.828125 44.09375 54.296875 
Q 44.09375 59.90625 40.109375 62.90625 
Q 36.140625 65.921875 28.71875 65.921875 
Q 24.65625 65.921875 20.015625 65.03125 
Q 15.375 64.15625 9.8125 62.3125 
L 9.8125 71.09375 
Q 15.4375 72.65625 20.34375 73.4375 
Q 25.25 74.21875 29.59375 74.21875 
Q 40.828125 74.21875 47.359375 69.109375 
Q 53.90625 64.015625 53.90625 55.328125 
Q 53.90625 49.265625 50.4375 45.09375 
Q 46.96875 40.921875 40.578125 39.3125 
z
" id="DejaVuSans-51"/>
       </defs>
       <use xlink:href="#DejaVuSans-51"/>
       <use x="63.623047" xlink:href="#DejaVuSans-48"/>
       <use x="127.246094" xlink:href="#DejaVuSans-48"/>
       <use x="190.869141" xlink:href="#DejaVuSans-48"/>
      </g>
     </g>
    </g>
    <g id="xtick_8">
     <g id="line2d_8">
      <g>
       <use style="stroke:#000000;stroke-width:0.8;" x="357.980699" xlink:href="#m266897950b" y="307.584"/>
      </g>
     </g>
     <g id="text_8">
      <!-- 3500 -->
      <g transform="translate(345.255699 322.182437)scale(0.1 -0.1)">
       <use xlink:href="#DejaVuSans-51"/>
       <use x="63.623047" xlink:href="#DejaVuSans-53"/>
       <use x="127.246094" xlink:href="#DejaVuSans-48"/>
       <use x="190.869141" xlink:href="#DejaVuSans-48"/>
      </g>
     </g>
    </g>
    <g id="xtick_9">
     <g id="line2d_9">
      <g>
       <use style="stroke:#000000;stroke-width:0.8;" x="398.806574" xlink:href="#m266897950b" y="307.584"/>
      </g>
     </g>
     <g id="text_9">
      <!-- 4000 -->
      <g transform="translate(386.081574 322.182437)scale(0.1 -0.1)">
       <defs>
        <path d="M 37.796875 64.3125 
L 12.890625 25.390625 
L 37.796875 25.390625 
z
M 35.203125 72.90625 
L 47.609375 72.90625 
L 47.609375 25.390625 
L 58.015625 25.390625 
L 58.015625 17.1875 
L 47.609375 17.1875 
L 47.609375 0 
L 37.796875 0 
L 37.796875 17.1875 
L 4.890625 17.1875 
L 4.890625 26.703125 
z
" id="DejaVuSans-52"/>
       </defs>
       <use xlink:href="#DejaVuSans-52"/>
       <use x="63.623047" xlink:href="#DejaVuSans-48"/>
       <use x="127.246094" xlink:href="#DejaVuSans-48"/>
       <use x="190.869141" xlink:href="#DejaVuSans-48"/>
      </g>
     </g>
    </g>
    <g id="text_10">
     <!-- $\lambda$ (nm) -->
     <g transform="translate(219.66 335.860562)scale(0.1 -0.1)">
      <defs>
       <path d="M 36.71875 67.4375 
L 48.828125 0 
L 39.3125 0 
L 31.84375 40.4375 
L 5.125 0 
L -4.390625 0 
L 29.734375 52.4375 
L 28.03125 62.109375 
Q 26.953125 68.265625 21.734375 68.265625 
L 17.046875 68.265625 
L 18.5 75.984375 
L 24.21875 75.875 
Q 35.203125 75.734375 36.71875 67.4375 
z
" id="DejaVuSans-Oblique-955"/>
       <path id="DejaVuSans-32"/>
       <path d="M 31 75.875 
Q 24.46875 64.65625 21.28125 53.65625 
Q 18.109375 42.671875 18.109375 31.390625 
Q 18.109375 20.125 21.3125 9.0625 
Q 24.515625 -2 31 -13.1875 
L 23.1875 -13.1875 
Q 15.875 -1.703125 12.234375 9.375 
Q 8.59375 20.453125 8.59375 31.390625 
Q 8.59375 42.28125 12.203125 53.3125 
Q 15.828125 64.359375 23.1875 75.875 
z
" id="DejaVuSans-40"/>
       <path d="M 54.890625 33.015625 
L 54.890625 0 
L 45.90625 0 
L 45.90625 32.71875 
Q 45.90625 40.484375 42.875 44.328125 
Q 39.84375 48.1875 33.796875 48.1875 
Q 26.515625 48.1875 22.3125 43.546875 
Q 18.109375 38.921875 18.109375 30.90625 
L 18.109375 0 
L 9.078125 0 
L 9.078125 54.6875 
L 18.109375 54.6875 
L 18.109375 46.1875 
Q 21.34375 51.125 25.703125 53.5625 
Q 30.078125 56 35.796875 56 
Q 45.21875 56 50.046875 50.171875 
Q 54.890625 44.34375 54.890625 33.015625 
z
" id="DejaVuSans-110"/>
       <path d="M 52 44.1875 
Q 55.375 50.25 60.0625 53.125 
Q 64.75 56 71.09375 56 
Q 79.640625 56 84.28125 50.015625 
Q 88.921875 44.046875 88.921875 33.015625 
L 88.921875 0 
L 79.890625 0 
L 79.890625 32.71875 
Q 79.890625 40.578125 77.09375 44.375 
Q 74.3125 48.1875 68.609375 48.1875 
Q 61.625 48.1875 57.5625 43.546875 
Q 53.515625 38.921875 53.515625 30.90625 
L 53.515625 0 
L 44.484375 0 
L 44.484375 32.71875 
Q 44.484375 40.625 41.703125 44.40625 
Q 38.921875 48.1875 33.109375 48.1875 
Q 26.21875 48.1875 22.15625 43.53125 
Q 18.109375 38.875 18.109375 30.90625 
L 18.109375 0 
L 9.078125 0 
L 9.078125 54.6875 
L 18.109375 54.6875 
L 18.109375 46.1875 
Q 21.1875 51.21875 25.484375 53.609375 
Q 29.78125 56 35.6875 56 
Q 41.65625 56 45.828125 52.96875 
Q 50 49.953125 52 44.1875 
z
" id="DejaVuSans-109"/>
       <path d="M 8.015625 75.875 
L 15.828125 75.875 
Q 23.140625 64.359375 26.78125 53.3125 
Q 30.421875 42.28125 30.421875 31.390625 
Q 30.421875 20.453125 26.78125 9.375 
Q 23.140625 -1.703125 15.828125 -13.1875 
L 8.015625 -13.1875 
Q 14.5 -2 17.703125 9.0625 
Q 20.90625 20.125 20.90625 31.390625 
Q 20.90625 42.671875 17.703125 53.65625 
Q 14.5 64.65625 8.015625 75.875 
z
" id="DejaVuSans-41"/>
      </defs>
      <use transform="translate(0 0.015625)" xlink:href="#DejaVuSans-Oblique-955"/>
      <use transform="translate(59.179688 0.015625)" xlink:href="#DejaVuSans-32"/>
      <use transform="translate(90.966797 0.015625)" xlink:href="#DejaVuSans-40"/>
      <use transform="translate(129.980469 0.015625)" xlink:href="#DejaVuSans-110"/>
      <use transform="translate(193.359375 0.015625)" xlink:href="#DejaVuSans-109"/>
      <use transform="translate(290.771484 0.015625)" xlink:href="#DejaVuSans-41"/>
     </g>
    </g>
   </g>
   <g id="matplotlib.axis_2">
    <g id="ytick_1">
     <g id="line2d_10">
      <defs>
       <path d="M 0 0 
L -3.5 0 
" id="m50f730fada" style="stroke:#000000;stroke-width:0.8;"/>
      </defs>
      <g>
       <use style="stroke:#000000;stroke-width:0.8;" x="57.6" xlink:href="#m50f730fada" y="284.530265"/>
      </g>
     </g>
     <g id="text_11">
      <!-- 0.0 -->
      <g transform="translate(34.696875 288.329483)scale(0.1 -0.1)">
       <defs>
        <path d="M 10.6875 12.40625 
L 21 12.40625 
L 21 0 
L 10.6875 0 
z
" id="DejaVuSans-46"/>
       </defs>
       <use xlink:href="#DejaVuSans-48"/>
       <use x="63.623047" xlink:href="#DejaVuSans-46"/>
       <use x="95.410156" xlink:href="#DejaVuSans-48"/>
      </g>
     </g>
    </g>
    <g id="ytick_2">
     <g id="line2d_11">
      <g>
       <use style="stroke:#000000;stroke-width:0.8;" x="57.6" xlink:href="#m50f730fada" y="227.91902"/>
      </g>
     </g>
     <g id="text_12">
      <!-- 0.1 -->
      <g transform="translate(34.696875 231.718239)scale(0.1 -0.1)">
       <use xlink:href="#DejaVuSans-48"/>
       <use x="63.623047" xlink:href="#DejaVuSans-46"/>
       <use x="95.410156" xlink:href="#DejaVuSans-49"/>
      </g>
     </g>
    </g>
    <g id="ytick_3">
     <g id="line2d_12">
      <g>
       <use style="stroke:#000000;stroke-width:0.8;" x="57.6" xlink:href="#m50f730fada" y="171.307776"/>
      </g>
     </g>
     <g id="text_13">
      <!-- 0.2 -->
      <g transform="translate(34.696875 175.106995)scale(0.1 -0.1)">
       <use xlink:href="#DejaVuSans-48"/>
       <use x="63.623047" xlink:href="#DejaVuSans-46"/>
       <use x="95.410156" xlink:href="#DejaVuSans-50"/>
      </g>
     </g>
    </g>
    <g id="ytick_4">
     <g id="line2d_13">
      <g>
       <use style="stroke:#000000;stroke-width:0.8;" x="57.6" xlink:href="#m50f730fada" y="114.696532"/>
      </g>
     </g>
     <g id="text_14">
      <!-- 0.3 -->
      <g transform="translate(34.696875 118.495751)scale(0.1 -0.1)">
       <use xlink:href="#DejaVuSans-48"/>
       <use x="63.623047" xlink:href="#DejaVuSans-46"/>
       <use x="95.410156" xlink:href="#DejaVuSans-51"/>
      </g>
     </g>
    </g>
    <g id="ytick_5">
     <g id="line2d_14">
      <g>
       <use style="stroke:#000000;stroke-width:0.8;" x="57.6" xlink:href="#m50f730fada" y="58.085288"/>
      </g>
     </g>
     <g id="text_15">
      <!-- 0.4 -->
      <g transform="translate(34.696875 61.884506)scale(0.1 -0.1)">
       <use xlink:href="#DejaVuSans-48"/>
       <use x="63.623047" xlink:href="#DejaVuSans-46"/>
       <use x="95.410156" xlink:href="#DejaVuSans-52"/>
      </g>
     </g>
    </g>
    <g id="text_16">
     <!-- Height (Mm) -->
     <g transform="translate(28.617187 205.731906)rotate(-90)scale(0.1 -0.1)">
      <defs>
       <path d="M 9.8125 72.90625 
L 19.671875 72.90625 
L 19.671875 43.015625 
L 55.515625 43.015625 
L 55.515625 72.90625 
L 65.375 72.90625 
L 65.375 0 
L 55.515625 0 
L 55.515625 34.71875 
L 19.671875 34.71875 
L 19.671875 0 
L 9.8125 0 
z
" id="DejaVuSans-72"/>
       <path d="M 56.203125 29.59375 
L 56.203125 25.203125 
L 14.890625 25.203125 
Q 15.484375 15.921875 20.484375 11.0625 
Q 25.484375 6.203125 34.421875 6.203125 
Q 39.59375 6.203125 44.453125 7.46875 
Q 49.3125 8.734375 54.109375 11.28125 
L 54.109375 2.78125 
Q 49.265625 0.734375 44.1875 -0.34375 
Q 39.109375 -1.421875 33.890625 -1.421875 
Q 20.796875 -1.421875 13.15625 6.1875 
Q 5.515625 13.8125 5.515625 26.8125 
Q 5.515625 40.234375 12.765625 48.109375 
Q 20.015625 56 32.328125 56 
Q 43.359375 56 49.78125 48.890625 
Q 56.203125 41.796875 56.203125 29.59375 
z
M 47.21875 32.234375 
Q 47.125 39.59375 43.09375 43.984375 
Q 39.0625 48.390625 32.421875 48.390625 
Q 24.90625 48.390625 20.390625 44.140625 
Q 15.875 39.890625 15.1875 32.171875 
z
" id="DejaVuSans-101"/>
       <path d="M 9.421875 54.6875 
L 18.40625 54.6875 
L 18.40625 0 
L 9.421875 0 
z
M 9.421875 75.984375 
L 18.40625 75.984375 
L 18.40625 64.59375 
L 9.421875 64.59375 
z
" id="DejaVuSans-105"/>
       <path d="M 45.40625 27.984375 
Q 45.40625 37.75 41.375 43.109375 
Q 37.359375 48.484375 30.078125 48.484375 
Q 22.859375 48.484375 18.828125 43.109375 
Q 14.796875 37.75 14.796875 27.984375 
Q 14.796875 18.265625 18.828125 12.890625 
Q 22.859375 7.515625 30.078125 7.515625 
Q 37.359375 7.515625 41.375 12.890625 
Q 45.40625 18.265625 45.40625 27.984375 
z
M 54.390625 6.78125 
Q 54.390625 -7.171875 48.1875 -13.984375 
Q 42 -20.796875 29.203125 -20.796875 
Q 24.46875 -20.796875 20.265625 -20.09375 
Q 16.0625 -19.390625 12.109375 -17.921875 
L 12.109375 -9.1875 
Q 16.0625 -11.328125 19.921875 -12.34375 
Q 23.78125 -13.375 27.78125 -13.375 
Q 36.625 -13.375 41.015625 -8.765625 
Q 45.40625 -4.15625 45.40625 5.171875 
L 45.40625 9.625 
Q 42.625 4.78125 38.28125 2.390625 
Q 33.9375 0 27.875 0 
Q 17.828125 0 11.671875 7.65625 
Q 5.515625 15.328125 5.515625 27.984375 
Q 5.515625 40.671875 11.671875 48.328125 
Q 17.828125 56 27.875 56 
Q 33.9375 56 38.28125 53.609375 
Q 42.625 51.21875 45.40625 46.390625 
L 45.40625 54.6875 
L 54.390625 54.6875 
z
" id="DejaVuSans-103"/>
       <path d="M 54.890625 33.015625 
L 54.890625 0 
L 45.90625 0 
L 45.90625 32.71875 
Q 45.90625 40.484375 42.875 44.328125 
Q 39.84375 48.1875 33.796875 48.1875 
Q 26.515625 48.1875 22.3125 43.546875 
Q 18.109375 38.921875 18.109375 30.90625 
L 18.109375 0 
L 9.078125 0 
L 9.078125 75.984375 
L 18.109375 75.984375 
L 18.109375 46.1875 
Q 21.34375 51.125 25.703125 53.5625 
Q 30.078125 56 35.796875 56 
Q 45.21875 56 50.046875 50.171875 
Q 54.890625 44.34375 54.890625 33.015625 
z
" id="DejaVuSans-104"/>
       <path d="M 18.3125 70.21875 
L 18.3125 54.6875 
L 36.8125 54.6875 
L 36.8125 47.703125 
L 18.3125 47.703125 
L 18.3125 18.015625 
Q 18.3125 11.328125 20.140625 9.421875 
Q 21.96875 7.515625 27.59375 7.515625 
L 36.8125 7.515625 
L 36.8125 0 
L 27.59375 0 
Q 17.1875 0 13.234375 3.875 
Q 9.28125 7.765625 9.28125 18.015625 
L 9.28125 47.703125 
L 2.6875 47.703125 
L 2.6875 54.6875 
L 9.28125 54.6875 
L 9.28125 70.21875 
z
" id="DejaVuSans-116"/>
       <path d="M 9.8125 72.90625 
L 24.515625 72.90625 
L 43.109375 23.296875 
L 61.8125 72.90625 
L 76.515625 72.90625 
L 76.515625 0 
L 66.890625 0 
L 66.890625 64.015625 
L 48.09375 14.015625 
L 38.1875 14.015625 
L 19.390625 64.015625 
L 19.390625 0 
L 9.8125 0 
z
" id="DejaVuSans-77"/>
      </defs>
      <use xlink:href="#DejaVuSans-72"/>
      <use x="75.195312" xlink:href="#DejaVuSans-101"/>
      <use x="136.71875" xlink:href="#DejaVuSans-105"/>
      <use x="164.501953" xlink:href="#DejaVuSans-103"/>
      <use x="227.978516" xlink:href="#DejaVuSans-104"/>
      <use x="291.357422" xlink:href="#DejaVuSans-116"/>
      <use x="330.566406" xlink:href="#DejaVuSans-32"/>
      <use x="362.353516" xlink:href="#DejaVuSans-40"/>
      <use x="401.367188" xlink:href="#DejaVuSans-77"/>
      <use x="487.646484" xlink:href="#DejaVuSans-109"/>
      <use x="585.058594" xlink:href="#DejaVuSans-41"/>
     </g>
    </g>
   </g>
   <g id="line2d_15">
    <path clip-path="url(#pa74e38b52a)" d="M 73.832727 55.053701 
L 74.241003 54.480578 
L 75.057522 54.004448 
L 75.873964 53.779399 
L 76.28216 53.726592 
L 76.690419 54.086663 
L 78.731713 53.714343 
L 79.572834 53.630171 
L 79.956489 57.329325 
L 79.966696 155.501101 
L 80.371918 155.755143 
L 80.778928 157.665853 
L 81.186536 160.636598 
L 81.589524 160.941777 
L 81.594414 160.923303 
L 81.997783 119.600301 
L 82.002438 166.499997 
L 82.136591 60.612714 
L 82.144756 71.174066 
L 82.406042 165.131755 
L 82.410545 165.117271 
L 82.818705 164.381473 
L 83.226896 164.349012 
L 84.451445 163.744963 
L 85.257864 194.361839 
L 85.67769 194.565334 
L 86.085542 205.813304 
L 86.493716 205.234208 
L 86.901972 206.132428 
L 87.310261 205.149285 
L 87.718569 204.518622 
L 88.126888 204.233941 
L 88.943547 204.018349 
L 89.351883 269.738254 
L 90.168566 280.379161 
L 90.985259 286.001304 
L 91.393608 287.43185 
L 91.801959 288.226053 
L 92.618664 290.125246 
L 93.027018 290.358634 
L 93.843729 290.387556 
L 94.660443 290.364088 
L 95.068801 243.257523 
L 95.47716 290.156352 
L 100.377498 288.908665 
L 103.644412 288.324556 
L 104.052777 288.263166 
L 104.265282 278.2686 
L 104.315353 248.238916 
L 104.327717 53.568 
L 104.414441 281.034967 
L 104.461142 288.203497 
L 104.538169 282.29422 
L 104.595235 263.987568 
L 104.611414 146.026255 
L 104.611981 53.765059 
L 104.719197 284.363235 
L 104.869507 288.145204 
L 112.628469 286.932576 
L 117.937248 286.35967 
L 124.471138 285.869149 
L 131.413405 285.584603 
L 141.21426 285.31668 
L 141.571759 285.041027 
L 141.598154 282.935081 
L 141.605633 259.877943 
L 141.606486 67.239421 
L 141.641214 285.040956 
L 141.906928 284.575953 
L 141.949483 281.273532 
L 141.96486 250.613798 
L 141.966404 55.811939 
L 142.036219 284.753324 
L 142.439368 285.316418 
L 142.847737 285.317794 
L 142.921666 283.549897 
L 142.943037 272.890338 
L 142.946897 57.142844 
L 143.005893 284.840655 
L 143.256106 285.319988 
L 149.381645 285.476871 
L 164.491315 286.25066 
L 169.800119 286.817091 
L 174.700555 287.550889 
L 185.318167 289.569983 
L 187.768385 290.306906 
L 188.993494 290.673633 
L 192.668822 291.691697 
L 195.52741 292.697473 
L 197.160889 293.171007 
L 204.511546 295.13663 
L 206.553395 295.488 
L 224.930038 294.574953 
L 225.338408 290.373937 
L 225.746778 294.525314 
L 238.406244 293.876398 
L 254.74104 293.276203 
L 275.159537 292.537297 
L 291.902705 291.88065 
L 313.137944 291.278735 
L 351.524722 290.252103 
L 373.985072 289.57029 
L 387.461283 289.242592 
L 387.869653 276.321274 
L 388.278023 289.224422 
L 398.487273 289.011354 
L 398.487273 289.011354 
" style="fill:none;stroke:#000000;stroke-dasharray:5.55,2.4;stroke-dashoffset:0;stroke-width:1.5;"/>
   </g>
   <g id="line2d_16">
    <path clip-path="url(#pa74e38b52a)" d="M 73.832727 69.279114 
L 74.241003 106.427837 
L 74.649269 104.82773 
L 75.057522 103.898045 
L 75.465756 103.299091 
L 76.28216 101.664246 
L 76.690253 113.077742 
L 76.690419 113.077708 
L 77.098678 112.946296 
L 77.915195 110.20961 
L 79.122227 107.349221 
L 79.572834 105.247644 
L 79.956489 113.305186 
L 79.966696 173.440606 
L 80.371918 173.275662 
L 80.778928 183.241814 
L 81.186536 185.254006 
L 81.589524 186.019692 
L 81.594414 186.015154 
L 81.997783 149.592005 
L 82.002438 191.986581 
L 82.136591 114.857614 
L 82.144756 117.896806 
L 82.406042 191.585774 
L 82.410545 191.581118 
L 82.818705 191.367778 
L 83.226896 192.494421 
L 84.451445 192.19135 
L 84.859344 200.872411 
L 85.257864 203.08696 
L 85.67769 203.207979 
L 86.085542 209.973858 
L 86.493716 209.274663 
L 86.901972 209.583098 
L 87.310261 209.043709 
L 88.126888 208.505594 
L 88.943547 208.246397 
L 89.351883 261.80802 
L 90.168566 273.308245 
L 90.985259 279.135981 
L 91.393608 280.025323 
L 91.801959 279.885053 
L 92.21031 283.694785 
L 92.618664 284.262952 
L 93.027018 284.148878 
L 93.843729 283.260089 
L 94.660443 282.131972 
L 95.068801 228.269431 
L 95.47716 280.252254 
L 96.293879 277.771478 
L 97.1106 273.972824 
L 97.927323 268.881688 
L 101.602589 241.076531 
L 102.010953 283.20216 
L 104.052777 282.013986 
L 104.240992 274.842514 
L 104.304237 255.435216 
L 104.327774 102.669043 
L 104.390152 271.434917 
L 104.461142 281.798995 
L 104.528465 276.766055 
L 104.586297 263.333662 
L 104.611217 182.023256 
L 104.611981 109.815222 
L 104.719197 278.266811 
L 104.869507 281.536032 
L 105.277873 281.190572 
L 105.686238 281.270602 
L 108.136435 279.485447 
L 110.178267 278.063231 
L 112.628469 276.022456 
L 113.853571 275.025114 
L 116.303776 272.699049 
L 117.937248 271.155552 
L 123.246033 266.088452 
L 125.287875 264.40372 
L 125.696244 258.404094 
L 126.104612 263.787582 
L 128.963192 261.873424 
L 133.04688 259.368119 
L 137.13057 257.105541 
L 139.172415 256.175624 
L 139.580784 262.466302 
L 141.589711 262.058858 
L 141.603004 259.217254 
L 141.606486 124.763914 
L 141.641214 262.165178 
L 141.919452 262.004633 
L 141.949483 260.940107 
L 141.963128 243.477729 
L 141.966404 115.048784 
L 142.036219 262.085321 
L 142.847737 262.09053 
L 142.913466 261.88931 
L 142.93588 260.418148 
L 142.945423 217.337426 
L 142.946897 117.398828 
L 143.005893 262.015277 
L 143.664476 262.037649 
L 146.114691 262.02366 
L 148.564907 262.232902 
L 151.423492 262.687405 
L 155.098817 263.511118 
L 157.549033 264.234961 
L 159.590881 265.036379 
L 162.857837 266.616404 
L 164.899684 267.813586 
L 167.758271 269.815733 
L 169.800119 271.497926 
L 171.433598 272.817431 
L 173.475446 274.530646 
L 174.700555 275.579207 
L 176.742403 277.171356 
L 179.192621 279.165659 
L 181.23447 280.69705 
L 182.867948 281.922981 
L 184.909797 283.103583 
L 186.543276 284.27269 
L 187.360015 284.842283 
L 189.401864 286.033873 
L 191.035343 287.17891 
L 191.443713 288.343804 
L 193.893931 289.677389 
L 195.119041 290.324392 
L 197.977629 291.588036 
L 200.427848 292.682584 
L 205.328285 294.17069 
L 206.145025 294.464811 
L 207.370134 294.41164 
L 217.98775 293.603974 
L 224.930038 293.138172 
L 225.338408 67.131039 
L 225.746778 293.085088 
L 241.264833 291.983307 
L 253.515931 291.0553 
L 258.008 290.76273 
L 258.41637 291.344635 
L 271.075838 290.53813 
L 282.101826 289.820861 
L 294.761295 288.722902 
L 309.870984 287.648799 
L 313.546314 287.320034 
L 335.598293 284.330502 
L 344.174063 282.396233 
L 348.257762 281.429091 
L 355.200052 278.713417 
L 356.016792 278.309955 
L 360.917232 274.917741 
L 364.184192 271.524419 
L 367.042782 267.60968 
L 369.493002 263.665749 
L 371.534852 260.017301 
L 373.576702 256.070507 
L 375.618552 251.849858 
L 379.293882 243.546725 
L 382.560842 235.527232 
L 387.461283 222.989578 
L 387.869653 180.03772 
L 388.278023 220.941007 
L 392.361723 211.226025 
L 398.078903 198.098995 
L 398.487273 197.21871 
L 398.487273 197.21871 
" style="fill:none;stroke:#ff0000;stroke-linecap:square;stroke-width:1.5;"/>
   </g>
   <g id="line2d_17">
    <path clip-path="url(#pa74e38b52a)" d="M 73.832727 61.256631 
L 74.241003 103.356943 
L 74.649269 102.323009 
L 75.057522 101.721423 
L 75.873964 98.764446 
L 76.28216 98.083446 
L 76.690253 115.61489 
L 76.690419 115.614873 
L 77.098678 115.574179 
L 77.915195 111.221847 
L 78.731713 107.854572 
L 79.572834 103.1337 
L 79.956489 115.775692 
L 79.966696 172.415656 
L 80.371918 172.130655 
L 80.778928 187.121483 
L 81.589524 191.118528 
L 81.594414 191.10444 
L 81.997783 152.555503 
L 82.002438 201.181041 
L 82.136591 117.024686 
L 82.144756 120.342376 
L 82.406042 200.859547 
L 82.410545 200.85047 
L 82.818705 200.491251 
L 83.226896 207.651822 
L 84.451445 206.391143 
L 84.859344 224.864285 
L 85.257864 226.541384 
L 85.67769 227.379538 
L 86.085542 235.310202 
L 86.493716 234.941889 
L 86.901972 236.373378 
L 87.718569 235.310982 
L 88.126888 235.151796 
L 88.535214 235.205856 
L 88.943547 235.081644 
L 89.351883 251.334222 
L 89.760223 253.23493 
L 90.168566 255.935379 
L 90.576912 257.249122 
L 90.985259 259.671447 
L 91.393608 258.931475 
L 91.801959 256.810848 
L 92.21031 256.154628 
L 92.618664 254.861795 
L 94.252086 241.556495 
L 94.660443 237.444476 
L 95.068801 209.495653 
L 95.47716 225.04966 
L 96.293879 215.943008 
L 97.1106 209.317136 
L 98.335684 201.350734 
L 99.560772 194.737153 
L 101.194225 187.325088 
L 101.602589 185.685933 
L 102.010953 275.870476 
L 104.052777 272.81515 
L 104.240992 260.613821 
L 104.322858 214.349359 
L 104.327659 102.128869 
L 104.414441 260.412273 
L 104.461142 272.071695 
L 104.538169 262.854202 
L 104.605499 225.026985 
L 104.611981 113.27556 
L 104.695497 264.207427 
L 104.733612 267.760804 
L 104.869507 271.346419 
L 105.277873 270.648615 
L 105.686238 270.501744 
L 109.769901 263.949135 
L 112.220102 260.459129 
L 114.670306 257.281821 
L 117.52888 254.280568 
L 118.345616 253.520606 
L 118.753983 252.790871 
L 121.61256 250.259208 
L 124.471138 248.154634 
L 125.287875 247.594852 
L 125.696244 222.848372 
L 126.104612 247.0469 
L 131.821774 243.193584 
L 137.538939 238.80036 
L 139.172415 236.71859 
L 139.580784 249.538843 
L 141.21426 249.216813 
L 141.571759 248.855631 
L 141.596005 246.10012 
L 141.605206 174.464021 
L 141.606486 127.786471 
L 141.641214 248.84415 
L 141.901981 248.334796 
L 141.94069 244.739791 
L 141.964212 196.996124 
L 141.96661 117.537967 
L 142.036219 248.422578 
L 142.439368 248.99237 
L 142.847737 248.920573 
L 142.913466 247.302731 
L 142.938481 232.772797 
L 142.947047 119.606037 
L 143.005893 248.365962 
L 143.256106 248.850473 
L 147.339799 248.262806 
L 153.465339 247.630379 
L 161.632728 246.961067 
L 168.575011 246.648063 
L 177.150773 246.317163 
L 182.459579 246.00502 
L 185.726536 245.522082 
L 189.401864 244.810954 
L 190.626973 244.408831 
L 191.035343 244.209807 
L 191.443713 275.845154 
L 193.077192 278.53167 
L 194.710671 280.512778 
L 196.75252 283.183035 
L 199.202738 285.221784 
L 201.244587 287.00807 
L 204.103176 288.161146 
L 206.553395 289.209741 
L 212.270572 287.406243 
L 213.904052 286.81548 
L 218.39612 283.311933 
L 219.21286 282.581122 
L 221.254709 278.630027 
L 221.663079 277.483216 
L 222.888188 271.850637 
L 223.704928 266.245698 
L 224.930038 256.119478 
L 225.338408 71.83838 
L 225.746778 250.676459 
L 226.971887 245.13112 
L 228.196997 241.023639 
L 229.830476 236.205322 
L 231.463956 231.891225 
L 233.505805 227.115482 
L 236.772764 221.384423 
L 238.814614 218.515088 
L 242.081573 214.224999 
L 246.165272 209.48278 
L 249.432231 205.980703 
L 253.515931 201.931239 
L 257.19126 198.55126 
L 258.008 197.833894 
L 258.41637 221.461588 
L 260.049849 219.588404 
L 264.133549 215.235098 
L 267.400508 212.022333 
L 271.892578 207.899461 
L 276.793017 203.664335 
L 282.101826 199.41243 
L 287.002266 195.724404 
L 292.311075 192.012184 
L 297.619885 188.491143 
L 302.928694 185.231103 
L 311.096094 180.528427 
L 316.813273 177.50242 
L 326.205783 172.850543 
L 332.331333 170.015218 
L 338.865253 167.23502 
L 349.482872 163.033502 
L 356.833532 160.350981 
L 364.592562 157.762181 
L 375.210182 154.500977 
L 383.785952 152.035693 
L 387.461283 151.046882 
L 387.869653 149.877664 
L 388.278023 150.832328 
L 397.670533 148.491893 
L 398.487273 148.298883 
L 398.487273 148.298883 
" style="fill:none;stroke:#ff0000;stroke-dasharray:9.6,2.4,1.5,2.4;stroke-dashoffset:0;stroke-width:1.5;"/>
   </g>
   <g id="line2d_18">
    <path clip-path="url(#pa74e38b52a)" d="M 73.832727 78.470367 
L 74.241003 83.799777 
L 75.057522 82.747605 
L 76.28216 81.895461 
L 76.690253 88.841848 
L 76.690419 88.841443 
L 77.506936 87.393382 
L 78.323454 86.100555 
L 79.572834 84.546491 
L 79.956489 90.043957 
L 79.966696 166.205514 
L 80.371918 166.069876 
L 80.778928 179.285675 
L 81.186536 181.322103 
L 81.589524 182.301137 
L 81.594414 182.290761 
L 81.997783 87.563969 
L 82.002438 195.245955 
L 82.136591 101.422596 
L 82.144756 107.737046 
L 82.406042 194.909951 
L 82.410545 194.901068 
L 82.818705 194.267418 
L 83.226896 202.363056 
L 83.802286 201.99568 
L 84.043299 201.684081 
L 84.451445 201.384384 
L 84.859344 222.745157 
L 85.257864 224.487566 
L 85.67769 225.446932 
L 86.085542 239.162767 
L 86.493716 238.906696 
L 86.901972 240.841693 
L 87.718569 239.854438 
L 88.126888 239.792204 
L 88.535214 240.079369 
L 88.943547 240.109004 
L 89.351883 257.615138 
L 89.760223 261.295462 
L 90.985259 277.08949 
L 91.393608 279.467275 
L 91.801959 280.280276 
L 92.21031 283.189932 
L 92.618664 284.185479 
L 93.027018 284.346962 
L 93.843729 284.040948 
L 94.660443 283.625559 
L 95.068801 223.74512 
L 95.47716 282.629606 
L 97.1106 279.680609 
L 97.518961 279.344474 
L 97.927323 278.468593 
L 99.560772 272.364539 
L 100.785861 266.06069 
L 101.602589 261.618663 
L 102.010953 283.337785 
L 102.827682 282.809455 
L 104.052777 281.966436 
L 104.240992 265.343072 
L 104.32412 203.675782 
L 104.328869 84.601711 
L 104.414441 265.246606 
L 104.461142 281.705152 
L 104.538169 269.259521 
L 104.608817 208.429031 
L 104.613154 86.656622 
L 104.706566 273.734127 
L 104.869507 281.449447 
L 105.277873 281.205454 
L 105.686238 281.269178 
L 108.544801 279.769969 
L 110.995001 278.621263 
L 113.445204 276.781616 
L 115.487041 275.467835 
L 118.753983 273.337034 
L 121.61256 271.186828 
L 124.06277 269.598728 
L 125.287875 268.898577 
L 125.696244 264.943965 
L 126.104612 268.408961 
L 128.554824 267.028773 
L 132.638511 265.033612 
L 136.722201 263.297519 
L 139.172415 262.472146 
L 139.580784 266.86628 
L 141.21426 266.692182 
L 141.571759 265.826969 
L 141.596005 258.224516 
L 141.606897 113.59411 
L 141.641214 265.829378 
L 141.901981 264.516503 
L 141.942474 254.03272 
L 141.96486 147.679085 
L 141.967142 98.926412 
L 142.036219 264.823328 
L 142.439368 266.601557 
L 142.847737 266.578677 
L 142.913466 262.064052 
L 142.943887 210.666035 
L 142.947475 101.865911 
L 143.005893 265.076594 
L 143.256106 266.559895 
L 146.114691 266.569407 
L 148.973276 266.827 
L 152.240231 267.354318 
L 155.915555 268.156776 
L 159.182511 269.092942 
L 162.041098 270.098184 
L 164.899684 271.347629 
L 166.941532 272.457622 
L 170.616859 274.617414 
L 173.475446 276.177042 
L 175.517294 277.512191 
L 177.559143 278.938204 
L 180.009361 280.114997 
L 182.459579 281.561744 
L 185.726536 283.582464 
L 187.768385 284.532911 
L 189.810234 285.770797 
L 191.035343 286.635233 
L 191.443713 287.757498 
L 193.893931 288.81972 
L 195.93578 289.92962 
L 197.569259 290.906144 
L 204.919916 293.4321 
L 206.145025 293.93259 
L 207.370134 293.885869 
L 216.354271 292.976404 
L 224.930038 292.222208 
L 225.338408 79.666774 
L 225.746778 292.15262 
L 236.772764 291.337245 
L 247.390382 290.554884 
L 257.59963 289.365032 
L 258.008 289.321727 
L 258.41637 290.167649 
L 267.808878 289.109559 
L 278.834867 288.09831 
L 291.085965 287.006508 
L 300.478475 285.377472 
L 310.687724 283.834276 
L 315.179794 283.155214 
L 324.163933 279.71953 
L 326.614153 278.753768 
L 331.106223 274.671317 
L 331.922963 273.959336 
L 335.189923 269.146413 
L 336.415033 267.001791 
L 340.090363 260.518959 
L 341.723843 257.837185 
L 345.807542 252.743966 
L 351.116352 248.150189 
L 352.341462 247.263732 
L 358.058642 243.612114 
L 362.550712 240.96259 
L 378.885512 231.557153 
L 385.419432 227.600212 
L 387.461283 226.308988 
L 387.869653 211.988252 
L 388.278023 225.780734 
L 398.487273 219.249516 
L 398.487273 219.249516 
" style="fill:none;stroke:#0000ff;stroke-dasharray:5.55,2.4;stroke-dashoffset:0;stroke-width:1.5;"/>
   </g>
   <g id="line2d_19">
    <path clip-path="url(#pa74e38b52a)" d="M 73.832727 103.00298 
L 75.057522 102.846008 
L 76.28216 102.801805 
L 77.098678 102.858155 
L 79.572834 102.796051 
L 79.956489 102.950864 
L 79.966696 151.292505 
L 80.371918 151.387736 
L 80.778928 158.870813 
L 81.186536 162.116985 
L 81.589524 162.989847 
L 81.594414 162.975708 
L 81.997783 102.813716 
L 82.002438 179.149497 
L 82.136591 103.342333 
L 82.144756 104.272541 
L 82.406042 178.561121 
L 82.410545 178.551015 
L 82.818705 177.971253 
L 83.226896 185.057184 
L 84.043299 184.098775 
L 84.451445 183.80851 
L 84.859344 206.836457 
L 85.257864 208.837422 
L 85.67769 209.367633 
L 86.085542 229.887127 
L 86.493716 229.109993 
L 86.901972 233.496608 
L 87.310261 232.643203 
L 87.718569 232.051677 
L 88.126888 232.049091 
L 88.535214 232.416248 
L 88.943547 232.464424 
L 89.351883 260.093311 
L 89.760223 264.628408 
L 90.576912 276.153083 
L 90.985259 281.191175 
L 91.393608 283.830869 
L 91.801959 284.843382 
L 92.618664 287.797247 
L 93.027018 288.040992 
L 93.843729 288.089409 
L 94.660443 288.080569 
L 95.068801 224.060752 
L 95.47716 287.888198 
L 97.518961 287.293722 
L 100.377498 285.84875 
L 101.602589 285.344209 
L 102.010953 285.902572 
L 104.052777 285.297174 
L 104.240992 271.545225 
L 104.321114 211.340202 
L 104.328869 102.834687 
L 104.414441 271.522949 
L 104.461142 285.188809 
L 104.538169 274.99659 
L 104.604897 222.051174 
L 104.613368 102.845687 
L 104.695497 276.596989 
L 104.733612 280.531517 
L 104.869507 285.082817 
L 105.277873 284.980904 
L 105.686238 285.012683 
L 109.769901 284.174893 
L 114.261939 283.316895 
L 117.120512 282.632512 
L 121.204192 281.810626 
L 125.696244 281.073567 
L 126.512981 281.043614 
L 132.230143 280.547645 
L 138.355677 280.207891 
L 139.989153 280.282525 
L 141.21426 280.271969 
L 141.571759 279.971587 
L 141.593249 277.81789 
L 141.604171 218.503118 
L 141.60932 105.116418 
L 141.641214 279.973595 
L 141.901981 279.559943 
L 141.93435 276.568951 
L 141.956805 247.334091 
L 141.969342 103.133987 
L 142.036219 279.656053 
L 142.439368 280.270281 
L 142.847737 280.271684 
L 142.913466 278.34038 
L 142.938481 251.468888 
L 142.949906 103.351038 
L 143.005893 279.752988 
L 143.256106 280.274187 
L 148.156537 280.412759 
L 154.282078 280.825282 
L 159.590881 281.382432 
L 164.082945 282.095884 
L 167.758271 282.901655 
L 171.841967 283.869892 
L 175.925664 284.613735 
L 179.192621 285.427499 
L 182.051209 286.359245 
L 186.951646 288.044511 
L 189.401864 288.864218 
L 191.443713 289.754674 
L 195.119041 291.324783 
L 198.794369 292.598206 
L 203.286436 294.12862 
L 206.553395 294.799258 
L 219.21286 294.200149 
L 224.930038 293.930796 
L 225.338408 107.369028 
L 225.746778 293.866017 
L 236.772764 293.113895 
L 250.248971 292.423987 
L 273.934427 291.489564 
L 300.478475 290.478794 
L 318.446753 289.68393 
L 335.189923 288.926902 
L 354.791682 288.251628 
L 380.110622 287.615083 
L 386.236172 287.382155 
L 387.461283 287.317165 
L 387.869653 239.912004 
L 388.278023 287.274359 
L 398.487273 286.771996 
L 398.487273 286.771996 
" style="fill:none;stroke:#0000ff;stroke-dasharray:9.6,2.4,1.5,2.4;stroke-dashoffset:0;stroke-width:1.5;"/>
   </g>
   <g id="patch_3">
    <path d="M 57.6 307.584 
L 57.6 41.472 
" style="fill:none;stroke:#000000;stroke-linecap:square;stroke-linejoin:miter;stroke-width:0.8;"/>
   </g>
   <g id="patch_4">
    <path d="M 414.72 307.584 
L 414.72 41.472 
" style="fill:none;stroke:#000000;stroke-linecap:square;stroke-linejoin:miter;stroke-width:0.8;"/>
   </g>
   <g id="patch_5">
    <path d="M 57.6 307.584 
L 414.72 307.584 
" style="fill:none;stroke:#000000;stroke-linecap:square;stroke-linejoin:miter;stroke-width:0.8;"/>
   </g>
   <g id="patch_6">
    <path d="M 57.6 41.472 
L 414.72 41.472 
" style="fill:none;stroke:#000000;stroke-linecap:square;stroke-linejoin:miter;stroke-width:0.8;"/>
   </g>
   <g id="text_17">
    <!-- $\tau=1$ -->
    <g transform="translate(221.34 35.472)scale(0.12 -0.12)">
     <defs>
      <path d="M 32.859375 9.96875 
Q 34.1875 7.625 39.453125 7.625 
L 43.75 7.625 
L 42.28125 0 
L 36.921875 0 
Q 28.125 0 25 4.6875 
Q 21.921875 9.46875 23.96875 19.828125 
L 29 45.703125 
L 8.453125 45.703125 
L 10.203125 54.6875 
L 60.640625 54.6875 
L 58.890625 45.703125 
L 38.1875 45.703125 
L 33.015625 19.28125 
Q 31.640625 12.203125 32.859375 9.96875 
z
" id="DejaVuSans-Oblique-964"/>
      <path d="M 10.59375 45.40625 
L 73.1875 45.40625 
L 73.1875 37.203125 
L 10.59375 37.203125 
z
M 10.59375 25.484375 
L 73.1875 25.484375 
L 73.1875 17.1875 
L 10.59375 17.1875 
z
" id="DejaVuSans-61"/>
     </defs>
     <use transform="translate(0 0.09375)" xlink:href="#DejaVuSans-Oblique-964"/>
     <use transform="translate(79.6875 0.09375)" xlink:href="#DejaVuSans-61"/>
     <use transform="translate(182.958984 0.09375)" xlink:href="#DejaVuSans-49"/>
    </g>
   </g>
   <g id="legend_1">
    <g id="patch_7">
     <path d="M 339.777813 122.862625 
L 407.72 122.862625 
Q 409.72 122.862625 409.72 120.862625 
L 409.72 48.472 
Q 409.72 46.472 407.72 46.472 
L 339.777813 46.472 
Q 337.777813 46.472 337.777813 48.472 
L 337.777813 120.862625 
Q 337.777813 122.862625 339.777813 122.862625 
z
" style="fill:#ffffff;opacity:0.8;stroke:#cccccc;stroke-linejoin:miter;"/>
    </g>
    <g id="line2d_20">
     <path d="M 341.777813 54.570438 
L 361.777813 54.570438 
" style="fill:none;stroke:#000000;stroke-dasharray:5.55,2.4;stroke-dashoffset:0;stroke-width:1.5;"/>
    </g>
    <g id="line2d_21"/>
    <g id="text_18">
     <!-- 0 sec -->
     <g transform="translate(369.777813 58.070438)scale(0.1 -0.1)">
      <defs>
       <path d="M 44.28125 53.078125 
L 44.28125 44.578125 
Q 40.484375 46.53125 36.375 47.5 
Q 32.28125 48.484375 27.875 48.484375 
Q 21.1875 48.484375 17.84375 46.4375 
Q 14.5 44.390625 14.5 40.28125 
Q 14.5 37.15625 16.890625 35.375 
Q 19.28125 33.59375 26.515625 31.984375 
L 29.59375 31.296875 
Q 39.15625 29.25 43.1875 25.515625 
Q 47.21875 21.78125 47.21875 15.09375 
Q 47.21875 7.46875 41.1875 3.015625 
Q 35.15625 -1.421875 24.609375 -1.421875 
Q 20.21875 -1.421875 15.453125 -0.5625 
Q 10.6875 0.296875 5.421875 2 
L 5.421875 11.28125 
Q 10.40625 8.6875 15.234375 7.390625 
Q 20.0625 6.109375 24.8125 6.109375 
Q 31.15625 6.109375 34.5625 8.28125 
Q 37.984375 10.453125 37.984375 14.40625 
Q 37.984375 18.0625 35.515625 20.015625 
Q 33.0625 21.96875 24.703125 23.78125 
L 21.578125 24.515625 
Q 13.234375 26.265625 9.515625 29.90625 
Q 5.8125 33.546875 5.8125 39.890625 
Q 5.8125 47.609375 11.28125 51.796875 
Q 16.75 56 26.8125 56 
Q 31.78125 56 36.171875 55.265625 
Q 40.578125 54.546875 44.28125 53.078125 
z
" id="DejaVuSans-115"/>
       <path d="M 48.78125 52.59375 
L 48.78125 44.1875 
Q 44.96875 46.296875 41.140625 47.34375 
Q 37.3125 48.390625 33.40625 48.390625 
Q 24.65625 48.390625 19.8125 42.84375 
Q 14.984375 37.3125 14.984375 27.296875 
Q 14.984375 17.28125 19.8125 11.734375 
Q 24.65625 6.203125 33.40625 6.203125 
Q 37.3125 6.203125 41.140625 7.25 
Q 44.96875 8.296875 48.78125 10.40625 
L 48.78125 2.09375 
Q 45.015625 0.34375 40.984375 -0.53125 
Q 36.96875 -1.421875 32.421875 -1.421875 
Q 20.0625 -1.421875 12.78125 6.34375 
Q 5.515625 14.109375 5.515625 27.296875 
Q 5.515625 40.671875 12.859375 48.328125 
Q 20.21875 56 33.015625 56 
Q 37.15625 56 41.109375 55.140625 
Q 45.0625 54.296875 48.78125 52.59375 
z
" id="DejaVuSans-99"/>
      </defs>
      <use xlink:href="#DejaVuSans-48"/>
      <use x="63.623047" xlink:href="#DejaVuSans-32"/>
      <use x="95.410156" xlink:href="#DejaVuSans-115"/>
      <use x="147.509766" xlink:href="#DejaVuSans-101"/>
      <use x="209.033203" xlink:href="#DejaVuSans-99"/>
     </g>
    </g>
    <g id="line2d_22">
     <path d="M 341.777813 69.248563 
L 361.777813 69.248563 
" style="fill:none;stroke:#ff0000;stroke-linecap:square;stroke-width:1.5;"/>
    </g>
    <g id="line2d_23"/>
    <g id="text_19">
     <!-- 0.2 sec -->
     <g transform="translate(369.777813 72.748563)scale(0.1 -0.1)">
      <use xlink:href="#DejaVuSans-48"/>
      <use x="63.623047" xlink:href="#DejaVuSans-46"/>
      <use x="95.410156" xlink:href="#DejaVuSans-50"/>
      <use x="159.033203" xlink:href="#DejaVuSans-32"/>
      <use x="190.820312" xlink:href="#DejaVuSans-115"/>
      <use x="242.919922" xlink:href="#DejaVuSans-101"/>
      <use x="304.443359" xlink:href="#DejaVuSans-99"/>
     </g>
    </g>
    <g id="line2d_24">
     <path d="M 341.777813 83.926688 
L 361.777813 83.926688 
" style="fill:none;stroke:#ff0000;stroke-dasharray:9.6,2.4,1.5,2.4;stroke-dashoffset:0;stroke-width:1.5;"/>
    </g>
    <g id="line2d_25"/>
    <g id="text_20">
     <!-- 1.2 sec -->
     <g transform="translate(369.777813 87.426688)scale(0.1 -0.1)">
      <use xlink:href="#DejaVuSans-49"/>
      <use x="63.623047" xlink:href="#DejaVuSans-46"/>
      <use x="95.410156" xlink:href="#DejaVuSans-50"/>
      <use x="159.033203" xlink:href="#DejaVuSans-32"/>
      <use x="190.820312" xlink:href="#DejaVuSans-115"/>
      <use x="242.919922" xlink:href="#DejaVuSans-101"/>
      <use x="304.443359" xlink:href="#DejaVuSans-99"/>
     </g>
    </g>
    <g id="line2d_26">
     <path d="M 341.777813 98.604813 
L 361.777813 98.604813 
" style="fill:none;stroke:#0000ff;stroke-dasharray:5.55,2.4;stroke-dashoffset:0;stroke-width:1.5;"/>
    </g>
    <g id="line2d_27"/>
    <g id="text_21">
     <!-- 2.2 sec -->
     <g transform="translate(369.777813 102.104813)scale(0.1 -0.1)">
      <use xlink:href="#DejaVuSans-50"/>
      <use x="63.623047" xlink:href="#DejaVuSans-46"/>
      <use x="95.410156" xlink:href="#DejaVuSans-50"/>
      <use x="159.033203" xlink:href="#DejaVuSans-32"/>
      <use x="190.820312" xlink:href="#DejaVuSans-115"/>
      <use x="242.919922" xlink:href="#DejaVuSans-101"/>
      <use x="304.443359" xlink:href="#DejaVuSans-99"/>
     </g>
    </g>
    <g id="line2d_28">
     <path d="M 341.777813 113.282938 
L 361.777813 113.282938 
" style="fill:none;stroke:#0000ff;stroke-dasharray:9.6,2.4,1.5,2.4;stroke-dashoffset:0;stroke-width:1.5;"/>
    </g>
    <g id="line2d_29"/>
    <g id="text_22">
     <!-- 4. sec -->
     <g transform="translate(369.777813 116.782938)scale(0.1 -0.1)">
      <use xlink:href="#DejaVuSans-52"/>
      <use x="63.623047" xlink:href="#DejaVuSans-46"/>
      <use x="95.410156" xlink:href="#DejaVuSans-32"/>
      <use x="127.197266" xlink:href="#DejaVuSans-115"/>
      <use x="179.296875" xlink:href="#DejaVuSans-101"/>
      <use x="240.820312" xlink:href="#DejaVuSans-99"/>
     </g>
    </g>
   </g>
  </g>
 </g>
 <defs>
  <clipPath id="pa74e38b52a">
   <rect height="266.112" width="357.12" x="57.6" y="41.472"/>
  </clipPath>
 </defs>
</svg>
